<svg version="1.1" id="Layer_1" xmlns="http://www.w3.org/2000/svg" xmlns:xlink="http://www.w3.org/1999/xlink" x="0px" y="0px"
	 width="100%" viewBox="0 0 1080 1080" enable-background="new 0 0 1080 1080" xml:space="preserve">
<path fill="#000000" opacity="1.000000" stroke="none" 
	d="
M598.000000,1081.000000 
	C398.689606,1081.000000 199.879227,1081.000000 1.034416,1081.000000 
	C1.034416,721.064514 1.034416,361.128967 1.034416,1.096730 
	C360.893951,1.096730 720.787903,1.096730 1080.840942,1.096730 
	C1080.840942,360.999939 1080.840942,720.999939 1080.840942,1081.000000 
	C920.128479,1081.000000 759.314270,1081.000000 598.000000,1081.000000 
M898.499939,632.838562 
	C916.997314,632.838501 935.497009,633.020020 953.991333,632.782349 
	C969.487000,632.583191 984.479797,629.504395 998.115112,621.925598 
	C1019.713196,609.920959 1032.836792,592.039185 1033.257202,566.661987 
	C1033.665527,542.007202 1022.046692,523.752991 1001.372986,511.007904 
	C985.726257,501.361816 968.352295,498.198181 950.271790,498.178589 
	C904.111389,498.128632 857.950867,498.163055 811.790405,498.156403 
	C809.791809,498.156097 807.778381,498.223602 805.797302,498.016449 
	C799.315063,497.338501 794.957764,492.399048 794.957031,485.877106 
	C794.956360,479.658966 799.221863,474.788361 805.508118,474.011230 
	C807.482117,473.767181 809.500977,473.844666 811.499268,473.844452 
	C883.489624,473.837372 955.479980,473.838501 1027.470337,473.838470 
	C1029.276611,473.838470 1031.082886,473.838470 1033.165283,473.838470 
	C1033.165283,455.411652 1033.165283,437.318268 1033.165283,419.080414 
	C1032.216187,418.988251 1031.407593,418.840820 1030.598877,418.841003 
	C951.109802,418.859924 871.620422,418.764374 792.132019,419.014465 
	C773.951416,419.071655 757.140320,424.472809 742.039062,434.929199 
	C712.841675,455.146149 706.308289,496.084229 728.345581,523.885010 
	C743.984985,543.614563 765.544250,552.475159 789.980042,552.837036 
	C839.129578,553.565002 888.296387,553.114563 937.455994,553.204285 
	C940.092651,553.209106 942.821472,553.366638 945.345154,554.051270 
	C950.668396,555.495300 953.953125,560.156067 953.937622,565.563721 
	C953.922852,570.704529 950.707214,575.416321 945.680298,576.841614 
	C943.010803,577.598572 940.106567,577.789734 937.308044,577.791626 
	C865.317688,577.840149 793.327393,577.829956 721.337036,577.830017 
	C719.410583,577.830017 717.484131,577.830078 715.642456,577.830078 
	C715.642456,596.548584 715.642456,614.597351 715.642456,632.838562 
	C776.528015,632.838562 837.013916,632.838562 898.499939,632.838562 
M367.877136,473.512787 
	C364.573975,492.366241 367.986511,509.785919 380.279999,524.657349 
	C396.131897,543.833374 417.450531,552.586487 441.785706,552.868652 
	C490.772217,553.436646 539.769043,553.113525 588.761536,553.193298 
	C591.076111,553.197083 593.455200,553.261047 595.691772,553.780945 
	C601.667847,555.170227 605.148926,559.704102 605.107849,565.608093 
	C605.068542,571.269165 601.670898,575.731262 595.943848,577.120239 
	C593.555542,577.699341 591.006042,577.801697 588.529785,577.802856 
	C516.373169,577.836670 444.216583,577.830200 372.059998,577.830200 
	C370.305817,577.830200 368.551666,577.830139 366.955688,577.830139 
	C366.955688,596.496704 366.955688,614.443298 366.955688,632.838501 
	C368.665649,632.838501 370.124756,632.838501 371.583862,632.838501 
	C448.406464,632.838379 525.229187,632.890198 602.051514,632.753845 
	C609.342163,632.740967 616.752686,632.176941 623.897522,630.787903 
	C645.644104,626.560242 664.034180,616.581665 675.925659,597.157349 
	C694.007812,567.620667 683.651917,529.476257 652.858459,511.028259 
	C636.956360,501.501556 619.507202,498.175354 601.244934,498.167877 
	C555.084717,498.148987 508.924500,498.163361 462.764282,498.155426 
	C460.765991,498.155060 458.747162,498.232056 456.773254,497.987610 
	C450.653320,497.229645 446.250275,492.212433 446.134430,486.047333 
	C446.021698,480.047699 450.477264,474.853088 456.633728,474.032654 
	C458.767517,473.748322 460.958221,473.845306 463.122925,473.845062 
	C534.946228,473.837097 606.769531,473.838409 678.592834,473.838409 
	C680.537415,473.838409 682.481934,473.838409 684.542114,473.838409 
	C684.542114,455.217224 684.542114,437.156891 684.542114,418.830170 
	C683.084290,418.830170 681.932251,418.830170 680.780273,418.830170 
	C603.291077,418.830688 525.801819,418.768280 448.312958,418.930756 
	C440.711151,418.946686 432.945526,419.591888 425.541534,421.233368 
	C396.876770,427.588226 375.817963,442.822968 367.877136,473.512787 
M261.755615,553.161926 
	C260.151489,553.232361 258.547394,553.302856 256.533234,553.391357 
	C256.533234,557.022339 256.573212,560.328064 256.525604,563.632568 
	C256.391052,572.974487 251.698959,577.791382 242.297424,577.804077 
	C198.799713,577.862793 155.301849,577.858337 111.804123,577.808289 
	C102.247597,577.797302 97.500397,573.199463 97.465019,563.792847 
	C97.369141,538.294495 97.363136,512.795288 97.468948,487.297028 
	C97.506210,478.318817 102.102257,473.873505 111.176514,473.862762 
	C155.007553,473.810913 198.838715,473.811951 242.669754,473.861206 
	C251.912476,473.871582 256.322205,478.395111 256.523102,487.727051 
	C256.596497,491.135284 256.534943,494.546387 256.534943,497.976349 
	C283.390564,497.976349 309.497131,497.976349 335.815369,497.976349 
	C336.853394,481.377075 335.273743,465.562744 325.423798,451.639862 
	C309.850220,429.626617 287.424835,419.676483 261.544556,419.285004 
	C205.229309,418.433136 148.891159,418.825104 92.564987,419.155792 
	C78.485443,419.238403 64.939041,422.920471 52.537518,430.011688 
	C32.647415,441.384888 19.165318,457.731018 18.321346,481.133057 
	C17.258942,510.591949 17.690912,540.125854 18.236441,569.613342 
	C18.539116,585.973877 25.834988,599.755005 37.790813,610.890747 
	C55.252811,627.155090 76.662193,632.716553 99.791206,632.788025 
	C151.288086,632.947083 202.788422,633.110901 254.281052,632.616638 
	C265.120850,632.512512 276.291931,630.808044 286.693146,627.745117 
	C320.931641,617.662720 340.353790,587.529602 335.506195,553.161926 
	C311.281616,553.161926 286.994202,553.161926 261.755615,553.161926 
z"/>
<path fill="#FEFEFE" opacity="1.000000" stroke="none" 
	d="
M897.999878,632.838562 
	C837.013916,632.838562 776.528015,632.838562 715.642456,632.838562 
	C715.642456,614.597351 715.642456,596.548584 715.642456,577.830078 
	C717.484131,577.830078 719.410583,577.830017 721.337036,577.830017 
	C793.327393,577.829956 865.317688,577.840149 937.308044,577.791626 
	C940.106567,577.789734 943.010803,577.598572 945.680298,576.841614 
	C950.707214,575.416321 953.922852,570.704529 953.937622,565.563721 
	C953.953125,560.156067 950.668396,555.495300 945.345154,554.051270 
	C942.821472,553.366638 940.092651,553.209106 937.455994,553.204285 
	C888.296387,553.114563 839.129578,553.565002 789.980042,552.837036 
	C765.544250,552.475159 743.984985,543.614563 728.345581,523.885010 
	C706.308289,496.084229 712.841675,455.146149 742.039062,434.929199 
	C757.140320,424.472809 773.951416,419.071655 792.132019,419.014465 
	C871.620422,418.764374 951.109802,418.859924 1030.598877,418.841003 
	C1031.407593,418.840820 1032.216187,418.988251 1033.165283,419.080414 
	C1033.165283,437.318268 1033.165283,455.411652 1033.165283,473.838470 
	C1031.082886,473.838470 1029.276611,473.838470 1027.470337,473.838470 
	C955.479980,473.838501 883.489624,473.837372 811.499268,473.844452 
	C809.500977,473.844666 807.482117,473.767181 805.508118,474.011230 
	C799.221863,474.788361 794.956360,479.658966 794.957031,485.877106 
	C794.957764,492.399048 799.315063,497.338501 805.797302,498.016449 
	C807.778381,498.223602 809.791809,498.156097 811.790405,498.156403 
	C857.950867,498.163055 904.111389,498.128632 950.271790,498.178589 
	C968.352295,498.198181 985.726257,501.361816 1001.372986,511.007904 
	C1022.046692,523.752991 1033.665527,542.007202 1033.257202,566.661987 
	C1032.836792,592.039185 1019.713196,609.920959 998.115112,621.925598 
	C984.479797,629.504395 969.487000,632.583191 953.991333,632.782349 
	C935.497009,633.020020 916.997314,632.838501 897.999878,632.838562 
z"/>
<path fill="#FEFEFE" opacity="1.000000" stroke="none" 
	d="
M367.927094,473.086853 
	C375.817963,442.822968 396.876770,427.588226 425.541534,421.233368 
	C432.945526,419.591888 440.711151,418.946686 448.312958,418.930756 
	C525.801819,418.768280 603.291077,418.830688 680.780273,418.830170 
	C681.932251,418.830170 683.084290,418.830170 684.542114,418.830170 
	C684.542114,437.156891 684.542114,455.217224 684.542114,473.838409 
	C682.481934,473.838409 680.537415,473.838409 678.592834,473.838409 
	C606.769531,473.838409 534.946228,473.837097 463.122925,473.845062 
	C460.958221,473.845306 458.767517,473.748322 456.633728,474.032654 
	C450.477264,474.853088 446.021698,480.047699 446.134430,486.047333 
	C446.250275,492.212433 450.653320,497.229645 456.773254,497.987610 
	C458.747162,498.232056 460.765991,498.155060 462.764282,498.155426 
	C508.924500,498.163361 555.084717,498.148987 601.244934,498.167877 
	C619.507202,498.175354 636.956360,501.501556 652.858459,511.028259 
	C683.651917,529.476257 694.007812,567.620667 675.925659,597.157349 
	C664.034180,616.581665 645.644104,626.560242 623.897522,630.787903 
	C616.752686,632.176941 609.342163,632.740967 602.051514,632.753845 
	C525.229187,632.890198 448.406464,632.838379 371.583862,632.838501 
	C370.124756,632.838501 368.665649,632.838501 366.955688,632.838501 
	C366.955688,614.443298 366.955688,596.496704 366.955688,577.830139 
	C368.551666,577.830139 370.305817,577.830200 372.059998,577.830200 
	C444.216583,577.830200 516.373169,577.836670 588.529785,577.802856 
	C591.006042,577.801697 593.555542,577.699341 595.943848,577.120239 
	C601.670898,575.731262 605.068542,571.269165 605.107849,565.608093 
	C605.148926,559.704102 601.667847,555.170227 595.691772,553.780945 
	C593.455200,553.261047 591.076111,553.197083 588.761536,553.193298 
	C539.769043,553.113525 490.772217,553.436646 441.785706,552.868652 
	C417.450531,552.586487 396.131897,543.833374 380.279999,524.657349 
	C367.986511,509.785919 364.573975,492.366241 367.927094,473.086853 
z"/>
<path fill="#FEFEFE" opacity="1.000000" stroke="none" 
	d="
M262.231201,553.161926 
	C286.994202,553.161926 311.281616,553.161926 335.506195,553.161926 
	C340.353790,587.529602 320.931641,617.662720 286.693146,627.745117 
	C276.291931,630.808044 265.120850,632.512512 254.281052,632.616638 
	C202.788422,633.110901 151.288086,632.947083 99.791206,632.788025 
	C76.662193,632.716553 55.252811,627.155090 37.790813,610.890747 
	C25.834988,599.755005 18.539116,585.973877 18.236441,569.613342 
	C17.690912,540.125854 17.258942,510.591949 18.321346,481.133057 
	C19.165318,457.731018 32.647415,441.384888 52.537518,430.011688 
	C64.939041,422.920471 78.485443,419.238403 92.564987,419.155792 
	C148.891159,418.825104 205.229309,418.433136 261.544556,419.285004 
	C287.424835,419.676483 309.850220,429.626617 325.423798,451.639862 
	C335.273743,465.562744 336.853394,481.377075 335.815369,497.976349 
	C309.497131,497.976349 283.390564,497.976349 256.534943,497.976349 
	C256.534943,494.546387 256.596497,491.135284 256.523102,487.727051 
	C256.322205,478.395111 251.912476,473.871582 242.669754,473.861206 
	C198.838715,473.811951 155.007553,473.810913 111.176514,473.862762 
	C102.102257,473.873505 97.506210,478.318817 97.468948,487.297028 
	C97.363136,512.795288 97.369141,538.294495 97.465019,563.792847 
	C97.500397,573.199463 102.247597,577.797302 111.804123,577.808289 
	C155.301849,577.858337 198.799713,577.862793 242.297424,577.804077 
	C251.698959,577.791382 256.391052,572.974487 256.525604,563.632568 
	C256.573212,560.328064 256.533234,557.022339 256.533234,553.391357 
	C258.547394,553.302856 260.151489,553.232361 262.231201,553.161926 
z"/>
</svg>