<svg version="1.1" id="Layer_1" xmlns="http://www.w3.org/2000/svg" xmlns:xlink="http://www.w3.org/1999/xlink" x="0px" y="0px"
	 width="100%" viewBox="0 0 1080 1080" enable-background="new 0 0 1080 1080" xml:space="preserve">
<path fill="#000000" opacity="1.000000" stroke="none" 
	d="
M690.000000,1081.000000 
	C460.026489,1081.000000 230.552963,1081.000000 1.079454,1081.000000 
	C1.052976,1080.859863 1.003277,1080.719604 1.003276,1080.579468 
	C0.999989,720.787659 1.000000,360.995880 1.000000,1.000000 
	C180.911148,1.000000 360.822357,1.000000 540.733582,1.000000 
	C720.712830,1.000000 900.692017,1.000000 1080.835693,1.000000 
	C1080.835693,360.999939 1080.835693,720.999939 1080.835693,1081.000000 
	C950.802246,1081.000000 820.651123,1081.000000 690.000000,1081.000000 
M705.499939,954.169250 
	C729.329163,954.169250 753.159607,954.024719 776.987244,954.219727 
	C793.022766,954.350952 808.040527,950.591675 821.842285,942.683350 
	C841.105103,931.645874 854.065552,916.087097 855.148132,892.780396 
	C855.917419,876.219604 850.138733,861.471313 842.444275,847.263245 
	C812.149109,791.322693 781.841736,735.388794 751.567200,679.437073 
	C711.491394,605.371216 671.426453,531.299500 631.464294,457.172394 
	C630.364075,455.131531 630.103760,452.429199 630.102173,450.034882 
	C630.036682,353.549988 630.046326,257.065033 630.046326,160.580093 
	C630.046326,158.770020 630.046265,156.959930 630.046265,155.190720 
	C642.717529,153.834625 645.708313,150.456009 645.709717,137.854889 
	C645.709961,135.355347 645.819702,132.848618 645.671265,130.357574 
	C645.213623,122.676910 640.525818,118.178467 632.832642,118.013870 
	C629.001648,117.931892 625.167480,117.998688 621.334717,117.998688 
	C564.343628,117.998619 507.352264,117.932358 450.362000,118.152039 
	C446.675995,118.166245 442.284210,119.495148 439.466644,121.761475 
	C433.716003,126.386986 434.049133,146.871170 439.876923,151.391418 
	C442.941345,153.768311 447.281799,154.500000 451.765350,156.256378 
	C451.765350,157.042603 451.765350,158.846283 451.765350,160.649963 
	C451.765350,254.468658 451.686554,348.287537 451.899841,442.105743 
	C451.918976,450.523315 450.177277,457.754944 446.132812,465.204865 
	C397.555573,554.684692 349.273376,644.324707 300.904633,733.917725 
	C279.520874,773.526733 257.874664,812.996643 236.830719,852.785217 
	C227.528763,870.372742 224.851227,889.012451 232.662277,908.131592 
	C243.524475,934.718933 273.645599,954.156250 304.062378,954.160706 
	C437.541534,954.180542 571.020691,954.169250 705.499939,954.169250 
z"/>
<path fill="#FEFEFE" opacity="1.000000" stroke="none" 
	d="
M704.999878,954.169250 
	C571.020691,954.169250 437.541534,954.180542 304.062378,954.160706 
	C273.645599,954.156250 243.524475,934.718933 232.662277,908.131592 
	C224.851227,889.012451 227.528763,870.372742 236.830719,852.785217 
	C257.874664,812.996643 279.520874,773.526733 300.904633,733.917725 
	C349.273376,644.324707 397.555573,554.684692 446.132812,465.204865 
	C450.177277,457.754944 451.918976,450.523315 451.899841,442.105743 
	C451.686554,348.287537 451.765350,254.468658 451.765350,160.649963 
	C451.765350,158.846283 451.765350,157.042603 451.765350,156.256378 
	C447.281799,154.500000 442.941345,153.768311 439.876923,151.391418 
	C434.049133,146.871170 433.716003,126.386986 439.466644,121.761475 
	C442.284210,119.495148 446.675995,118.166245 450.362000,118.152039 
	C507.352264,117.932358 564.343628,117.998619 621.334717,117.998688 
	C625.167480,117.998688 629.001648,117.931892 632.832642,118.013870 
	C640.525818,118.178467 645.213623,122.676910 645.671265,130.357574 
	C645.819702,132.848618 645.709961,135.355347 645.709717,137.854889 
	C645.708313,150.456009 642.717529,153.834625 630.046265,155.190720 
	C630.046265,156.959930 630.046326,158.770020 630.046326,160.580093 
	C630.046326,257.065033 630.036682,353.549988 630.102173,450.034882 
	C630.103760,452.429199 630.364075,455.131531 631.464294,457.172394 
	C671.426453,531.299500 711.491394,605.371216 751.567200,679.437073 
	C781.841736,735.388794 812.149109,791.322693 842.444275,847.263245 
	C850.138733,861.471313 855.917419,876.219604 855.148132,892.780396 
	C854.065552,916.087097 841.105103,931.645874 821.842285,942.683350 
	C808.040527,950.591675 793.022766,954.350952 776.987244,954.219727 
	C753.159607,954.024719 729.329163,954.169250 704.999878,954.169250 
M417.303345,580.816956 
	C393.007385,625.456421 368.701660,670.090576 344.418243,714.736877 
	C321.801697,756.318604 299.147339,797.879944 276.642578,839.522095 
	C269.735870,852.302124 266.487396,865.978516 269.534027,880.456360 
	C275.272614,907.727112 304.529388,930.488586 333.612244,930.494141 
	C474.412506,930.520874 615.212769,930.519592 756.013062,930.487305 
	C771.791504,930.483704 786.193909,925.617493 799.025696,916.654846 
	C816.593689,904.383972 824.884216,887.598511 822.005493,865.940979 
	C820.539612,854.912964 816.242859,844.873596 811.102844,835.112976 
	C766.691650,750.778442 722.344360,666.410278 677.908325,582.088806 
	C668.774353,564.756287 659.693054,547.379456 649.930481,530.400940 
	C644.084778,520.234253 635.146912,513.751282 622.645691,516.297180 
	C616.570007,517.534485 610.537842,519.993164 605.056702,522.955078 
	C587.968140,532.189575 571.484741,542.589355 554.150818,551.313660 
	C529.285034,563.828674 502.689972,569.657776 474.854431,565.806458 
	C460.163666,563.773804 445.761230,559.657104 430.663696,556.357910 
	C426.742828,563.585449 422.234070,571.896667 417.303345,580.816956 
M573.463257,232.499756 
	C573.463257,295.117615 573.459351,357.735504 573.467102,420.353363 
	C573.468384,430.921295 578.272217,437.063751 586.418274,436.998810 
	C594.609009,436.933502 599.130066,430.967316 599.130371,420.196869 
	C599.132324,338.260742 599.131836,256.324585 599.128357,174.388458 
	C599.128296,172.723633 599.178467,171.051102 599.043579,169.395325 
	C598.448792,162.094040 592.270020,156.966858 585.012146,157.692429 
	C577.858398,158.407608 573.524536,163.636337 573.490601,172.046173 
	C573.410583,191.863739 573.463928,211.681839 573.463257,232.499756 
z"/>
<path fill="#010101" opacity="1.000000" stroke="none" 
	d="
M417.514343,580.512390 
	C422.234070,571.896667 426.742828,563.585449 430.663696,556.357910 
	C445.761230,559.657104 460.163666,563.773804 474.854431,565.806458 
	C502.689972,569.657776 529.285034,563.828674 554.150818,551.313660 
	C571.484741,542.589355 587.968140,532.189575 605.056702,522.955078 
	C610.537842,519.993164 616.570007,517.534485 622.645691,516.297180 
	C635.146912,513.751282 644.084778,520.234253 649.930481,530.400940 
	C659.693054,547.379456 668.774353,564.756287 677.908325,582.088806 
	C722.344360,666.410278 766.691650,750.778442 811.102844,835.112976 
	C816.242859,844.873596 820.539612,854.912964 822.005493,865.940979 
	C824.884216,887.598511 816.593689,904.383972 799.025696,916.654846 
	C786.193909,925.617493 771.791504,930.483704 756.013062,930.487305 
	C615.212769,930.519592 474.412506,930.520874 333.612244,930.494141 
	C304.529388,930.488586 275.272614,907.727112 269.534027,880.456360 
	C266.487396,865.978516 269.735870,852.302124 276.642578,839.522095 
	C299.147339,797.879944 321.801697,756.318604 344.418243,714.736877 
	C368.701660,670.090576 393.007385,625.456421 417.514343,580.512390 
M484.770691,710.800354 
	C484.614746,710.666321 484.458771,710.532288 484.596252,709.729065 
	C485.124329,708.513306 485.706940,707.317993 486.172058,706.078613 
	C491.141510,692.836487 486.168304,677.686035 474.392487,670.138916 
	C462.873169,662.756165 447.023865,664.340393 437.583282,673.818237 
	C427.071136,684.371887 425.287109,699.535156 433.122589,711.732605 
	C440.472351,723.174011 452.271820,727.145264 469.220856,724.171082 
	C469.395508,724.313293 469.570129,724.455505 469.402588,725.190491 
	C457.682495,741.531616 455.202576,759.135132 463.803406,777.380066 
	C472.488831,795.804565 487.656952,805.416626 508.054138,806.361023 
	C534.576599,807.588989 558.383789,786.301819 559.964478,760.121155 
	C561.674500,731.798340 541.138428,707.777954 513.743958,705.733337 
	C503.655212,704.980347 494.332611,707.354797 484.770691,710.800354 
M588.566528,654.883057 
	C596.674133,654.419312 602.489258,650.637634 605.172363,642.847900 
	C607.557251,635.923889 605.986572,629.624268 600.744324,624.588379 
	C595.302124,619.360474 588.693481,618.416077 581.770874,621.100159 
	C574.599243,623.880920 570.302795,631.438171 571.098694,639.091064 
	C571.987671,647.638977 577.828796,653.174438 588.566528,654.883057 
z"/>
<path fill="#050505" opacity="1.000000" stroke="none" 
	d="
M573.463257,231.999741 
	C573.463928,211.681839 573.410583,191.863739 573.490601,172.046173 
	C573.524536,163.636337 577.858398,158.407608 585.012146,157.692429 
	C592.270020,156.966858 598.448792,162.094040 599.043579,169.395325 
	C599.178467,171.051102 599.128296,172.723633 599.128357,174.388458 
	C599.131836,256.324585 599.132324,338.260742 599.130371,420.196869 
	C599.130066,430.967316 594.609009,436.933502 586.418274,436.998810 
	C578.272217,437.063751 573.468384,430.921295 573.467102,420.353363 
	C573.459351,357.735504 573.463257,295.117615 573.463257,231.999741 
z"/>
<path fill="#FEFEFE" opacity="1.000000" stroke="none" 
	d="
M468.722992,723.714233 
	C452.271820,727.145264 440.472351,723.174011 433.122589,711.732605 
	C425.287109,699.535156 427.071136,684.371887 437.583282,673.818237 
	C447.023865,664.340393 462.873169,662.756165 474.392487,670.138916 
	C486.168304,677.686035 491.141510,692.836487 486.172058,706.078613 
	C485.706940,707.317993 485.124329,708.513306 484.231750,710.260864 
	C483.710510,711.129150 483.553741,711.465637 483.396973,711.802063 
	C484.003845,711.609924 484.610748,711.417786 485.217651,711.225708 
	C494.332611,707.354797 503.655212,704.980347 513.743958,705.733337 
	C541.138428,707.777954 561.674500,731.798340 559.964478,760.121155 
	C558.383789,786.301819 534.576599,807.588989 508.054138,806.361023 
	C487.656952,805.416626 472.488831,795.804565 463.803406,777.380066 
	C455.202576,759.135132 457.682495,741.531616 469.793396,724.703552 
	C470.328949,723.874634 470.473724,723.532593 470.618530,723.190613 
	C469.986664,723.365173 469.354828,723.539673 468.722992,723.714233 
z"/>
<path fill="#FCFCFC" opacity="1.000000" stroke="none" 
	d="
M588.149902,654.869080 
	C577.828796,653.174438 571.987671,647.638977 571.098694,639.091064 
	C570.302795,631.438171 574.599243,623.880920 581.770874,621.100159 
	C588.693481,618.416077 595.302124,619.360474 600.744324,624.588379 
	C605.986572,629.624268 607.557251,635.923889 605.172363,642.847900 
	C602.489258,650.637634 596.674133,654.419312 588.149902,654.869080 
z"/>
<path fill="#010101" opacity="1.000000" stroke="none" 
	d="
M484.994171,711.013062 
	C484.610748,711.417786 484.003845,711.609924 483.396973,711.802063 
	C483.553741,711.465637 483.710510,711.129150 484.085022,710.595459 
	C484.458771,710.532288 484.614746,710.666321 484.994171,711.013062 
z"/>
<path fill="#010101" opacity="1.000000" stroke="none" 
	d="
M468.971924,723.942627 
	C469.354828,723.539673 469.986664,723.365173 470.618530,723.190613 
	C470.473724,723.532593 470.328949,723.874634 469.964478,724.407166 
	C469.570129,724.455505 469.395508,724.313293 468.971924,723.942627 
z"/>
</svg>