<svg version="1.1" id="Layer_1" xmlns="http://www.w3.org/2000/svg" xmlns:xlink="http://www.w3.org/1999/xlink" x="0px" y="0px"
	 width="100%" viewBox="0 0 1080 1080" enable-background="new 0 0 1080 1080" xml:space="preserve">
<path fill="#000000" opacity="1.000000" stroke="none" 
	d="
M576.000000,1081.000000 
	C384.022095,1081.000000 192.544189,1081.000000 1.033147,1081.000000 
	C1.033147,721.063660 1.033147,361.127289 1.033147,1.095460 
	C360.894806,1.095460 720.789612,1.095460 1080.842285,1.095460 
	C1080.842285,360.999939 1080.842285,720.999939 1080.842285,1081.000000 
	C912.793457,1081.000000 744.646729,1081.000000 576.000000,1081.000000 
M234.266312,661.165100 
	C235.317596,672.778564 236.375168,684.391418 237.418961,696.005554 
	C240.281479,727.856323 243.144028,759.707031 245.995331,791.558838 
	C248.058380,814.605164 250.103485,837.653137 252.168716,860.836243 
	C253.774521,861.320679 255.185944,861.776489 256.613831,862.172974 
	C349.905304,888.078552 443.191833,914.002075 536.520996,939.771118 
	C539.345825,940.551086 542.779968,940.315186 545.655090,939.536987 
	C572.953979,932.149109 600.192749,924.539185 627.449768,916.996521 
	C693.508118,898.716614 759.559265,880.410522 825.648804,862.244141 
	C828.921021,861.344666 830.164734,860.048950 830.388000,856.631165 
	C831.017578,846.994812 832.113281,837.389526 832.968811,827.767029 
	C835.786194,796.079102 838.559570,764.387268 841.385803,732.700134 
	C844.567078,697.031860 847.800598,661.368225 850.986267,625.700378 
	C853.460876,597.994934 855.884766,570.284912 858.353149,542.578979 
	C861.235352,510.228638 864.145203,477.880737 867.036255,445.531189 
	C869.823608,414.341888 872.594299,383.151093 875.387146,351.962280 
	C878.239380,320.110718 881.111084,288.260895 883.971436,256.410065 
	C886.533813,227.876846 889.105957,199.344498 891.645630,170.809265 
	C892.527466,160.901245 893.325073,150.985718 894.181335,140.834122 
	C658.509460,140.834122 423.463318,140.834122 188.055069,140.834122 
	C188.508926,146.653168 188.882919,152.116104 189.368896,157.569046 
	C192.237152,189.753632 195.143799,221.934784 198.013443,254.119247 
	C200.809158,285.474609 203.557816,316.834137 206.360367,348.188904 
	C209.548431,383.856598 212.792450,419.519257 215.976471,455.187317 
	C218.790344,486.708527 221.546631,518.234863 224.343903,549.757568 
	C227.612198,586.588379 230.897385,623.417664 234.266312,661.165100 
z"/>
<path fill="#E34D26" opacity="1.000000" stroke="none" 
	d="
M234.220779,660.706360 
	C230.897385,623.417664 227.612198,586.588379 224.343903,549.757568 
	C221.546631,518.234863 218.790344,486.708527 215.976471,455.187317 
	C212.792450,419.519257 209.548431,383.856598 206.360367,348.188904 
	C203.557816,316.834137 200.809158,285.474609 198.013443,254.119247 
	C195.143799,221.934784 192.237152,189.753632 189.368896,157.569046 
	C188.882919,152.116104 188.508926,146.653168 188.055069,140.834122 
	C423.463318,140.834122 658.509460,140.834122 894.181335,140.834122 
	C893.325073,150.985718 892.527466,160.901245 891.645630,170.809265 
	C889.105957,199.344498 886.533813,227.876846 883.971436,256.410065 
	C881.111084,288.260895 878.239380,320.110718 875.387146,351.962280 
	C872.594299,383.151093 869.823608,414.341888 867.036255,445.531189 
	C864.145203,477.880737 861.235352,510.228638 858.353149,542.578979 
	C855.884766,570.284912 853.460876,597.994934 850.986267,625.700378 
	C847.800598,661.368225 844.567078,697.031860 841.385803,732.700134 
	C838.559570,764.387268 835.786194,796.079102 832.968811,827.767029 
	C832.113281,837.389526 831.017578,846.994812 830.388000,856.631165 
	C830.164734,860.048950 828.921021,861.344666 825.648804,862.244141 
	C759.559265,880.410522 693.508118,898.716614 627.449768,916.996521 
	C600.192749,924.539185 572.953979,932.149109 545.655090,939.536987 
	C542.779968,940.315186 539.345825,940.551086 536.520996,939.771118 
	C443.191833,914.002075 349.905304,888.078552 256.613831,862.172974 
	C255.185944,861.776489 253.774521,861.320679 252.168716,860.836243 
	C250.103485,837.653137 248.058380,814.605164 245.995331,791.558838 
	C243.144028,759.707031 240.281479,727.856323 237.418961,696.005554 
	C236.375168,684.391418 235.317596,672.778564 234.220779,660.706360 
M541.044678,696.025024 
	C541.044678,696.025024 541.063782,696.204773 540.322327,695.951416 
	C539.202393,695.631104 538.086792,695.294861 536.961975,694.992798 
	C506.917145,686.921265 476.881805,678.814026 446.810974,670.840698 
	C443.502075,669.963440 441.872986,668.749268 441.763885,664.922485 
	C441.560089,657.776123 440.603699,650.651245 439.958069,643.517578 
	C438.626068,628.800293 437.292511,614.083130 435.960938,599.380371 
	C406.121979,599.380371 376.742737,599.380371 347.250916,599.380371 
	C347.626495,604.080200 347.936432,608.395264 348.321075,612.703613 
	C351.890656,652.688965 355.526489,692.668579 358.963165,732.665344 
	C359.280945,736.363464 360.329376,738.108398 364.114319,739.109619 
	C384.055878,744.384155 403.904938,750.007812 423.794922,755.478210 
	C462.770935,766.198120 501.752716,776.896851 540.861328,787.856445 
	C540.861328,787.856445 540.990479,788.108582 540.991150,789.032227 
	C540.995605,817.030884 540.984802,845.029602 541.016541,873.028259 
	C541.023315,879.018555 541.827209,879.574585 547.416748,878.025635 
	C619.824829,857.961670 692.233093,837.898560 764.645081,817.848999 
	C775.398193,814.871582 775.619080,814.633545 775.989685,803.323730 
	C776.000549,802.990662 775.976135,802.655396 776.004517,802.324158 
	C777.097656,789.568726 778.152222,776.809875 779.302368,764.059570 
	C780.825745,747.171814 782.472900,730.295288 783.976868,713.405884 
	C785.466248,696.680176 786.781433,679.938843 788.287842,663.214722 
	C789.779114,646.657654 791.480469,630.119446 792.967224,613.562012 
	C794.468994,596.837402 795.761963,580.094055 797.254517,563.368591 
	C798.761658,546.479553 800.461914,529.607666 801.965881,512.718384 
	C803.455322,495.992615 804.733337,479.248016 806.234985,462.523407 
	C808.078369,441.992218 810.119873,421.478821 811.958313,400.947235 
	C813.455933,384.222260 814.690796,367.473724 816.203369,350.750183 
	C818.374573,326.743347 820.758484,302.755798 822.929504,278.748932 
	C825.175415,253.912750 827.217285,229.057983 829.514160,204.226669 
	C829.795715,201.182571 828.785278,199.742371 826.037109,199.375168 
	C823.901367,199.089783 821.722046,199.041183 819.562012,199.040009 
	C784.730469,199.021042 749.898987,199.026352 715.067444,199.026520 
	C660.070251,199.026794 605.073120,199.019547 550.075928,199.035904 
	C541.492981,199.038467 541.003296,199.567749 541.004089,208.058807 
	C541.006470,234.557373 541.015625,261.055939 540.102722,287.752014 
	C466.706726,287.752014 393.310730,287.752014 319.346619,287.752014 
	C327.332001,377.202484 335.255280,465.957153 343.204315,555.000610 
	C345.733917,555.000610 347.709839,555.000549 349.685791,555.000549 
	C393.154297,555.000549 436.622803,555.015808 480.091309,554.993835 
	C500.407074,554.983582 520.722778,554.901672 541.027039,555.006531 
	C541.027039,555.006531 540.959839,555.145874 540.974548,556.064697 
	C540.971069,602.664124 540.967651,649.263611 541.044678,696.025024 
z"/>
<path fill="#F1652A" opacity="1.000000" stroke="none" 
	d="
M541.022278,287.554504 
	C541.015625,261.055939 541.006470,234.557373 541.004089,208.058807 
	C541.003296,199.567749 541.492981,199.038467 550.075928,199.035904 
	C605.073120,199.019547 660.070251,199.026794 715.067444,199.026520 
	C749.898987,199.026352 784.730469,199.021042 819.562012,199.040009 
	C821.722046,199.041183 823.901367,199.089783 826.037109,199.375168 
	C828.785278,199.742371 829.795715,201.182571 829.514160,204.226669 
	C827.217285,229.057983 825.175415,253.912750 822.929504,278.748932 
	C820.758484,302.755798 818.374573,326.743347 816.203369,350.750183 
	C814.690796,367.473724 813.455933,384.222260 811.958313,400.947235 
	C810.119873,421.478821 808.078369,441.992218 806.234985,462.523407 
	C804.733337,479.248016 803.455322,495.992615 801.965881,512.718384 
	C800.461914,529.607666 798.761658,546.479553 797.254517,563.368591 
	C795.761963,580.094055 794.468994,596.837402 792.967224,613.562012 
	C791.480469,630.119446 789.779114,646.657654 788.287842,663.214722 
	C786.781433,679.938843 785.466248,696.680176 783.976868,713.405884 
	C782.472900,730.295288 780.825745,747.171814 779.302368,764.059570 
	C778.152222,776.809875 777.097656,789.568726 776.004517,802.324158 
	C775.976135,802.655396 776.000549,802.990662 775.989685,803.323730 
	C775.619080,814.633545 775.398193,814.871582 764.645081,817.848999 
	C692.233093,837.898560 619.824829,857.961670 547.416748,878.025635 
	C541.827209,879.574585 541.023315,879.018555 541.016541,873.028259 
	C540.984802,845.029602 540.995605,817.030884 541.378784,788.513733 
	C600.593018,771.698547 659.411438,755.371521 718.269592,739.189392 
	C721.400391,738.328552 722.573303,736.959839 722.845154,733.840149 
	C725.794434,699.989624 728.850159,666.148376 731.881897,632.305054 
	C736.176880,584.360779 740.484924,536.417786 744.763733,488.472107 
	C745.392944,481.421509 745.892029,474.359314 746.488586,466.831818 
	C744.201660,466.831818 742.560730,466.831848 740.919800,466.831848 
	C676.092590,466.831879 611.265320,466.830383 546.438110,466.841095 
	C544.943909,466.841339 543.449768,466.978790 541.708130,466.941467 
	C541.295349,466.757904 541.129944,466.685120 540.968201,466.168274 
	C540.998962,435.964844 541.026123,406.205505 541.046875,376.321167 
	C541.040466,376.196167 540.991394,375.950653 541.453308,376.036743 
	C612.539734,376.122864 683.164185,376.122864 754.320923,376.122864 
	C756.989502,346.598053 759.628601,317.398773 762.300842,287.832855 
	C759.883789,287.832855 758.401672,287.832855 756.919495,287.832855 
	C686.437500,287.832886 615.955566,287.831604 545.473572,287.842010 
	C543.979492,287.842224 542.485413,287.977234 541.008667,287.926270 
	C541.026001,287.803131 541.022278,287.554504 541.022278,287.554504 
z"/>
<path fill="#EBEBEB" opacity="1.000000" stroke="none" 
	d="
M540.964539,466.612366 
	C541.129944,466.685120 541.295349,466.757904 541.670471,467.355988 
	C541.598511,470.511444 541.078125,473.141113 541.072205,475.771942 
	C541.012512,502.131927 541.037415,528.492126 541.038513,554.852295 
	C520.722778,554.901672 500.407074,554.983582 480.091309,554.993835 
	C436.622803,555.015808 393.154297,555.000549 349.685791,555.000549 
	C347.709839,555.000549 345.733917,555.000610 343.204315,555.000610 
	C335.255280,465.957153 327.332001,377.202484 319.346619,287.752014 
	C393.310730,287.752014 466.706726,287.752014 540.562500,287.653259 
	C541.022278,287.554504 541.026001,287.803131 541.005371,288.391785 
	C540.986877,317.970490 540.989136,346.960571 540.991394,375.950653 
	C540.991394,375.950653 541.040466,376.196167 540.585083,376.222290 
	C498.878845,376.248383 457.627930,376.248383 415.988129,376.248383 
	C418.715027,406.665436 421.396912,436.580627 424.109039,466.832947 
	C438.309662,466.832947 451.935547,466.857452 465.561340,466.827667 
	C490.695770,466.772736 515.830139,466.685883 540.964539,466.612366 
z"/>
<path fill="#FFFFFF" opacity="1.000000" stroke="none" 
	d="
M541.032776,554.929443 
	C541.037415,528.492126 541.012512,502.131927 541.072205,475.771942 
	C541.078125,473.141113 541.598511,470.511444 541.917847,467.466736 
	C543.449768,466.978790 544.943909,466.841339 546.438110,466.841095 
	C611.265320,466.830383 676.092590,466.831879 740.919800,466.831848 
	C742.560730,466.831848 744.201660,466.831818 746.488586,466.831818 
	C745.892029,474.359314 745.392944,481.421509 744.763733,488.472107 
	C740.484924,536.417786 736.176880,584.360779 731.881897,632.305054 
	C728.850159,666.148376 725.794434,699.989624 722.845154,733.840149 
	C722.573303,736.959839 721.400391,738.328552 718.269592,739.189392 
	C659.411438,755.371521 600.593018,771.698547 541.378418,788.051880 
	C540.990479,788.108582 540.861328,787.856445 540.854614,787.224854 
	C540.919861,756.463745 540.991821,726.334290 541.063782,696.204773 
	C541.063782,696.204773 541.044678,696.025024 541.396606,696.007324 
	C573.039673,687.621948 604.317261,679.202759 635.641541,670.961304 
	C639.010498,670.074951 639.882568,668.501404 640.153625,665.167542 
	C642.175720,640.298889 644.475769,615.452942 646.652222,590.596680 
	C647.677307,578.889893 648.621948,567.176086 649.604492,555.448669 
	C648.747070,555.245117 648.273010,555.033752 647.799011,555.034119 
	C612.185974,555.060669 576.572876,555.103943 540.959839,555.145874 
	C540.959839,555.145874 541.027039,555.006531 541.032776,554.929443 
z"/>
<path fill="#EBEBEA" opacity="1.000000" stroke="none" 
	d="
M540.693054,696.078125 
	C540.991821,726.334290 540.919861,756.463745 540.789978,787.098816 
	C501.752716,776.896851 462.770935,766.198120 423.794922,755.478210 
	C403.904938,750.007812 384.055878,744.384155 364.114319,739.109619 
	C360.329376,738.108398 359.280945,736.363464 358.963165,732.665344 
	C355.526489,692.668579 351.890656,652.688965 348.321075,612.703613 
	C347.936432,608.395264 347.626495,604.080200 347.250916,599.380371 
	C376.742737,599.380371 406.121979,599.380371 435.960938,599.380371 
	C437.292511,614.083130 438.626068,628.800293 439.958069,643.517578 
	C440.603699,650.651245 441.560089,657.776123 441.763885,664.922485 
	C441.872986,668.749268 443.502075,669.963440 446.810974,670.840698 
	C476.881805,678.814026 506.917145,686.921265 536.961975,694.992798 
	C538.086792,695.294861 539.202393,695.631104 540.693054,696.078125 
z"/>
<path fill="#F16529" opacity="1.000000" stroke="none" 
	d="
M540.967163,555.605286 
	C576.572876,555.103943 612.185974,555.060669 647.799011,555.034119 
	C648.273010,555.033752 648.747070,555.245117 649.604492,555.448669 
	C648.621948,567.176086 647.677307,578.889893 646.652222,590.596680 
	C644.475769,615.452942 642.175720,640.298889 640.153625,665.167542 
	C639.882568,668.501404 639.010498,670.074951 635.641541,670.961304 
	C604.317261,679.202759 573.039673,687.621948 541.356445,695.926331 
	C540.967651,649.263611 540.971069,602.664124 540.967163,555.605286 
z"/>
<path fill="#FFFFFF" opacity="1.000000" stroke="none" 
	d="
M541.453308,376.036743 
	C540.989136,346.960571 540.986877,317.970490 540.988037,288.514893 
	C542.485413,287.977234 543.979492,287.842224 545.473572,287.842010 
	C615.955566,287.831604 686.437500,287.832886 756.919495,287.832855 
	C758.401672,287.832855 759.883789,287.832855 762.300842,287.832855 
	C759.628601,317.398773 756.989502,346.598053 754.320923,376.122864 
	C683.164185,376.122864 612.539734,376.122864 541.453308,376.036743 
z"/>
<path fill="#E44D26" opacity="1.000000" stroke="none" 
	d="
M540.968201,466.168274 
	C515.830139,466.685883 490.695770,466.772736 465.561340,466.827667 
	C451.935547,466.857452 438.309662,466.832947 424.109039,466.832947 
	C421.396912,436.580627 418.715027,406.665436 415.988129,376.248383 
	C457.627930,376.248383 498.878845,376.248383 540.591492,376.347290 
	C541.026123,406.205505 540.998962,435.964844 540.968201,466.168274 
z"/>
</svg>