<svg version="1.1" id="Layer_1" xmlns="http://www.w3.org/2000/svg" xmlns:xlink="http://www.w3.org/1999/xlink" x="0px" y="0px"
	 width="100%" viewBox="0 0 1080 1080" enable-background="new 0 0 1080 1080" xml:space="preserve">
<path fill="#000000" opacity="1.000000" stroke="none" 
	d="
M679.000000,1081.000000 
	C452.692719,1081.000000 226.885452,1081.000000 1.039090,1081.000000 
	C1.039090,721.067627 1.039090,361.135193 1.039090,1.101403 
	C360.890839,1.101403 720.781738,1.101403 1080.836304,1.101403 
	C1080.836304,360.999939 1080.836304,720.999939 1080.836304,1081.000000 
	C947.134766,1081.000000 813.317383,1081.000000 679.000000,1081.000000 
M659.068787,713.021545 
	C619.677124,713.028809 580.285400,713.036072 540.480652,712.180237 
	C540.452271,706.514893 540.258728,700.842041 540.514221,695.189514 
	C540.576294,693.815735 542.116028,692.508728 543.879517,691.444397 
	C569.113464,691.463745 594.347351,691.505005 619.581299,691.486572 
	C625.710632,691.482117 631.839905,691.281433 638.872253,691.448364 
	C678.367859,691.464172 717.863831,691.593628 757.358826,691.452637 
	C780.640076,691.369507 800.497803,682.552979 816.963135,666.310120 
	C833.466553,650.029724 842.337769,629.557800 848.052551,607.508362 
	C854.893433,581.114319 855.867188,554.181702 854.898315,527.141052 
	C854.206970,507.846954 852.606140,488.616577 847.256897,469.100861 
	C845.209534,462.718140 843.409424,456.243103 841.067383,449.970398 
	C834.591003,432.624542 825.738342,416.797607 810.776672,404.252167 
	C809.602844,403.408813 808.399902,402.602814 807.259644,401.716248 
	C797.042236,393.772339 785.745850,387.803253 772.770081,386.826416 
	C760.855652,385.929474 748.828125,386.523621 736.850281,386.485809 
	C729.050415,386.461182 721.250427,386.481201 713.016357,386.481201 
	C713.016357,388.749573 713.016296,390.539764 713.016418,392.329926 
	C713.018127,413.824951 713.457458,435.332581 712.839478,456.809753 
	C712.523376,467.795532 711.461243,479.021576 708.737915,489.625793 
	C701.451233,517.998657 684.108643,538.023743 655.470886,546.179443 
	C644.913452,549.186096 633.517944,549.795898 622.448486,550.327332 
	C606.997070,551.069153 591.492859,550.712341 575.107788,550.559143 
	C549.307678,550.536011 523.507507,550.457642 497.707581,550.516418 
	C487.063507,550.540710 476.371460,550.280884 465.787079,551.171204 
	C446.672333,552.778992 428.953156,558.863403 414.220978,571.498474 
	C396.968628,586.295044 389.630371,605.990173 389.412750,628.193604 
	C389.032623,666.973877 389.304047,705.760559 389.319214,744.544556 
	C389.319672,745.697815 389.507812,746.850891 389.341736,748.905762 
	C389.372375,759.362610 388.411865,769.936768 389.633118,780.252625 
	C392.467743,804.196594 407.214630,819.900269 427.939484,831.767273 
	C460.549194,848.919800 495.955994,852.796875 532.912292,853.883362 
	C561.915649,854.388306 590.788696,853.070190 619.245605,846.967529 
	C638.740356,842.786865 657.356812,836.272827 673.116638,823.555725 
	C685.908875,813.233398 693.367371,800.229675 693.047302,783.129944 
	C692.645752,761.673035 692.888977,740.204163 692.854675,718.740417 
	C692.851868,716.962708 692.854370,715.184937 692.854370,713.164673 
	C681.542480,713.164673 670.769165,713.164673 659.068787,713.021545 
M444.964233,532.196472 
	C447.462585,532.114746 449.960876,531.964172 452.459290,531.961548 
	C501.625488,531.909729 550.793701,532.101746 599.956360,531.663452 
	C611.018188,531.564880 622.359192,530.463684 633.054077,527.769531 
	C661.324036,520.647888 681.833984,504.178436 689.307312,474.891296 
	C691.666382,465.646118 692.536987,455.806061 692.604858,446.227783 
	C692.932312,400.064911 692.963379,353.896515 692.535400,307.735291 
	C692.468140,300.474854 689.505859,293.241241 687.819763,285.289276 
	C679.355835,266.431152 664.091919,254.630142 646.004395,246.327057 
	C622.585388,235.576538 597.599243,230.976456 571.082092,229.220337 
	C548.660034,229.475143 526.203674,229.064575 503.827911,230.217270 
	C488.760101,230.993484 473.652832,233.208984 458.837769,236.159149 
	C437.657532,240.376862 417.998169,248.491638 402.454620,264.256409 
	C394.249786,272.578064 388.970581,282.554901 388.923340,294.503876 
	C388.831909,317.664276 389.073883,340.825989 389.193420,363.987061 
	C389.201630,365.576263 389.340302,367.164795 389.422211,368.833191 
	C406.023132,368.833191 422.008606,368.833191 438.923035,368.971649 
	C473.017090,368.971649 507.111115,368.971649 541.309937,368.971649 
	C541.309937,376.579346 541.309937,383.475525 541.309937,390.511322 
	C539.956787,390.649048 538.985779,390.834412 538.014771,390.834412 
	C468.851959,390.833221 399.689117,390.817261 330.526306,390.801636 
	C330.193085,390.801575 329.859467,390.796387 329.526733,390.779694 
	C300.025635,389.303345 276.359131,400.900879 257.909302,423.411957 
	C241.348251,443.618530 233.976990,467.740997 229.968307,493.030975 
	C225.133896,523.530273 225.815308,554.158081 229.306091,584.706055 
	C231.852158,606.986572 237.159821,628.632385 247.840027,648.604919 
	C261.464844,674.083923 280.945282,692.604248 310.827942,695.318359 
	C329.663513,697.029114 348.781708,695.630127 367.773071,695.600159 
	C368.043488,695.599731 368.313385,695.260437 368.744324,694.971436 
	C368.813202,694.107117 368.958740,693.128296 368.959351,692.149414 
	C368.973816,668.817383 368.811432,645.483582 369.068024,622.154358 
	C369.150024,614.703674 369.658508,607.127808 371.137085,599.845764 
	C376.478058,573.541199 389.217438,552.057434 414.449066,540.528870 
	C423.670807,536.315369 434.137085,534.825745 444.964233,532.196472 
z"/>
<path fill="#3774A6" opacity="1.000000" stroke="none" 
	d="
M571.991272,229.455246 
	C597.599243,230.976456 622.585388,235.576538 646.004395,246.327057 
	C664.091919,254.630142 679.355835,266.431152 687.521545,285.709534 
	C685.572815,287.496094 683.791626,288.732941 682.290955,290.247711 
	C652.286560,320.533875 622.350586,350.887970 592.327820,381.155884 
	C544.001831,429.876373 495.616302,478.537720 447.299866,527.267639 
	C445.956177,528.622864 445.112457,530.473755 444.035614,532.093506 
	C434.137085,534.825745 423.670807,536.315369 414.449066,540.528870 
	C389.217438,552.057434 376.478058,573.541199 371.137085,599.845764 
	C369.658508,607.127808 369.150024,614.703674 369.068024,622.154358 
	C368.811432,645.483582 368.973816,668.817383 368.959351,692.149414 
	C368.958740,693.128296 368.813202,694.107117 368.744324,694.971436 
	C368.313385,695.260437 368.043488,695.599731 367.773071,695.600159 
	C348.781708,695.630127 329.663513,697.029114 310.827942,695.318359 
	C280.945282,692.604248 261.464844,674.083923 247.840027,648.604919 
	C237.159821,628.632385 231.852158,606.986572 229.306091,584.706055 
	C225.815308,554.158081 225.133896,523.530273 229.968307,493.030975 
	C233.976990,467.740997 241.348251,443.618530 257.909302,423.411957 
	C276.359131,400.900879 300.025635,389.303345 329.526733,390.779694 
	C329.859467,390.796387 330.193085,390.801575 330.526306,390.801636 
	C399.689117,390.817261 468.851959,390.833221 538.014771,390.834412 
	C538.985779,390.834412 539.956787,390.649048 541.309937,390.511322 
	C541.309937,383.475525 541.309937,376.579346 541.309937,368.971649 
	C507.111115,368.971649 473.017090,368.971649 438.529419,368.576660 
	C439.155792,366.889374 440.060669,365.483002 441.212311,364.321167 
	C483.188263,321.972382 525.187134,279.646301 567.182861,237.317108 
	C567.886902,236.607468 568.786194,236.007080 569.255737,235.166504 
	C570.283203,233.327347 571.092712,231.366440 571.991272,229.455246 
z"/>
<path fill="#FED546" opacity="1.000000" stroke="none" 
	d="
M576.011230,550.825684 
	C591.492859,550.712341 606.997070,551.069153 622.448486,550.327332 
	C633.517944,549.795898 644.913452,549.186096 655.470886,546.179443 
	C684.108643,538.023743 701.451233,517.998657 708.737915,489.625793 
	C711.461243,479.021576 712.523376,467.795532 712.839478,456.809753 
	C713.457458,435.332581 713.018127,413.824951 713.016418,392.329926 
	C713.016296,390.539764 713.016357,388.749573 713.016357,386.481201 
	C721.250427,386.481201 729.050415,386.461182 736.850281,386.485809 
	C748.828125,386.523621 760.855652,385.929474 772.770081,386.826416 
	C785.745850,387.803253 797.042236,393.772339 807.259644,401.716248 
	C808.399902,402.602814 809.602844,403.408813 810.745972,404.869324 
	C809.065125,407.568207 807.556458,409.782898 805.742981,411.710938 
	C788.780579,429.745239 771.765991,447.730408 754.766541,465.729828 
	C737.767090,483.729248 720.771606,501.732452 703.767029,519.726990 
	C686.419556,538.084534 669.059143,556.429810 651.711670,574.787292 
	C634.707092,592.781921 617.757690,610.828979 600.698486,628.771606 
	C585.350098,644.914856 569.810364,660.876831 554.521851,677.076111 
	C550.363586,681.482117 546.808350,686.457153 542.976318,691.171021 
	C542.116028,692.508728 540.576294,693.815735 540.514221,695.189514 
	C540.258728,700.842041 540.452271,706.514893 540.389282,712.756104 
	C538.604675,714.648743 536.709900,715.774475 535.250549,717.313171 
	C525.204468,727.905212 515.263550,738.596985 505.261169,749.230652 
	C494.234070,760.953674 483.207275,772.677246 472.126465,784.349365 
	C457.276001,799.992188 442.373718,815.585876 427.493713,831.200623 
	C407.214630,819.900269 392.467743,804.196594 389.633118,780.252625 
	C388.411865,769.936768 389.372375,759.362610 389.797241,748.424072 
	C391.833313,746.796875 393.640625,745.866150 394.959991,744.473206 
	C410.948761,727.592163 426.850098,710.628418 442.805359,693.715637 
	C460.130554,675.350647 477.492920,657.020813 494.830444,638.667480 
	C505.893738,626.955994 516.898438,615.188904 528.006592,603.520203 
	C542.900330,587.874817 557.904297,572.334229 572.749573,556.643311 
	C574.231201,555.077271 574.942444,552.782349 576.011230,550.825684 
z"/>
<path fill="#366D9B" opacity="1.000000" stroke="none" 
	d="
M444.499939,532.145020 
	C445.112457,530.473755 445.956177,528.622864 447.299866,527.267639 
	C495.616302,478.537720 544.001831,429.876373 592.327820,381.155884 
	C622.350586,350.887970 652.286560,320.533875 682.290955,290.247711 
	C683.791626,288.732941 685.572815,287.496094 687.552734,286.062500 
	C689.505859,293.241241 692.468140,300.474854 692.535400,307.735291 
	C692.963379,353.896515 692.932312,400.064911 692.604858,446.227783 
	C692.536987,455.806061 691.666382,465.646118 689.307312,474.891296 
	C681.833984,504.178436 661.324036,520.647888 633.054077,527.769531 
	C622.359192,530.463684 611.018188,531.564880 599.956360,531.663452 
	C550.793701,532.101746 501.625488,531.909729 452.459290,531.961548 
	C449.960876,531.964172 447.462585,532.114746 444.499939,532.145020 
z"/>
<path fill="#FFD242" opacity="1.000000" stroke="none" 
	d="
M543.427979,691.307739 
	C546.808350,686.457153 550.363586,681.482117 554.521851,677.076111 
	C569.810364,660.876831 585.350098,644.914856 600.698486,628.771606 
	C617.757690,610.828979 634.707092,592.781921 651.711670,574.787292 
	C669.059143,556.429810 686.419556,538.084534 703.767029,519.726990 
	C720.771606,501.732452 737.767090,483.729248 754.766541,465.729828 
	C771.765991,447.730408 788.780579,429.745239 805.742981,411.710938 
	C807.556458,409.782898 809.065125,407.568207 810.882446,405.188660 
	C825.738342,416.797607 834.591003,432.624542 841.067383,449.970398 
	C843.409424,456.243103 845.209534,462.718140 846.920349,469.571625 
	C845.018311,471.232605 843.250061,472.231842 841.920227,473.643921 
	C833.156982,482.949097 824.525208,492.377991 815.779053,501.699463 
	C804.529297,513.689392 793.217773,525.621399 781.923462,537.569336 
	C764.467712,556.035278 746.999634,574.489563 729.545227,592.956726 
	C718.365906,604.784607 707.246643,616.669495 696.020020,628.452148 
	C680.776978,644.450134 665.379395,660.301636 650.218567,676.376709 
	C645.834900,681.024719 642.036133,686.224243 637.969177,691.170959 
	C631.839905,691.281433 625.710632,691.482117 619.581299,691.486572 
	C594.347351,691.505005 569.113464,691.463745 543.427979,691.307739 
z"/>
<path fill="#FECD3D" opacity="1.000000" stroke="none" 
	d="
M638.420715,691.309692 
	C642.036133,686.224243 645.834900,681.024719 650.218567,676.376709 
	C665.379395,660.301636 680.776978,644.450134 696.020020,628.452148 
	C707.246643,616.669495 718.365906,604.784607 729.545227,592.956726 
	C746.999634,574.489563 764.467712,556.035278 781.923462,537.569336 
	C793.217773,525.621399 804.529297,513.689392 815.779053,501.699463 
	C824.525208,492.377991 833.156982,482.949097 841.920227,473.643921 
	C843.250061,472.231842 845.018311,471.232605 846.941895,469.975281 
	C852.606140,488.616577 854.206970,507.846954 854.898315,527.141052 
	C855.867188,554.181702 854.893433,581.114319 848.052551,607.508362 
	C842.337769,629.557800 833.466553,650.029724 816.963135,666.310120 
	C800.497803,682.552979 780.640076,691.369507 757.358826,691.452637 
	C717.863831,691.593628 678.367859,691.464172 638.420715,691.309692 
z"/>
<path fill="#FFDB4C" opacity="1.000000" stroke="none" 
	d="
M575.559570,550.692383 
	C574.942444,552.782349 574.231201,555.077271 572.749573,556.643311 
	C557.904297,572.334229 542.900330,587.874817 528.006592,603.520203 
	C516.898438,615.188904 505.893738,626.955994 494.830444,638.667480 
	C477.492920,657.020813 460.130554,675.350647 442.805359,693.715637 
	C426.850098,710.628418 410.948761,727.592163 394.959991,744.473206 
	C393.640625,745.866150 391.833313,746.796875 389.930603,747.973267 
	C389.507812,746.850891 389.319672,745.697815 389.319214,744.544556 
	C389.304047,705.760559 389.032623,666.973877 389.412750,628.193604 
	C389.630371,605.990173 396.968628,586.295044 414.220978,571.498474 
	C428.953156,558.863403 446.672333,552.778992 465.787079,551.171204 
	C476.371460,550.280884 487.063507,550.540710 497.707581,550.516418 
	C523.507507,550.457642 549.307678,550.536011 575.559570,550.692383 
z"/>
<path fill="#FFD140" opacity="1.000000" stroke="none" 
	d="
M427.716614,831.483948 
	C442.373718,815.585876 457.276001,799.992188 472.126465,784.349365 
	C483.207275,772.677246 494.234070,760.953674 505.261169,749.230652 
	C515.263550,738.596985 525.204468,727.905212 535.250549,717.313171 
	C536.709900,715.774475 538.604675,714.648743 540.595825,713.187622 
	C580.285400,713.036072 619.677124,713.028809 659.515747,713.444458 
	C659.141113,715.245361 658.541077,716.833862 657.463013,717.968018 
	C648.707642,727.178772 639.813965,736.258240 631.095520,745.503357 
	C629.719604,746.962524 629.012939,749.052795 627.568970,750.920776 
	C609.884399,751.104553 599.210327,764.663940 598.826294,780.148926 
	C595.765320,783.411865 592.947205,786.440552 590.074646,789.416687 
	C580.143188,799.705933 570.119446,809.907166 560.271301,820.275391 
	C551.464111,829.547668 542.783508,838.942871 534.206909,848.428467 
	C533.002136,849.760925 532.707397,851.916138 531.991394,853.690552 
	C495.955994,852.796875 460.549194,848.919800 427.716614,831.483948 
z"/>
<path fill="#3778AE" opacity="1.000000" stroke="none" 
	d="
M571.536682,229.337799 
	C571.092712,231.366440 570.283203,233.327347 569.255737,235.166504 
	C568.786194,236.007080 567.886902,236.607468 567.182861,237.317108 
	C525.187134,279.646301 483.188263,321.972382 441.212311,364.321167 
	C440.060669,365.483002 439.155792,366.889374 438.064941,368.507446 
	C422.008606,368.833191 406.023132,368.833191 389.422211,368.833191 
	C389.340302,367.164795 389.201630,365.576263 389.193420,363.987061 
	C389.073883,340.825989 388.831909,317.664276 388.923340,294.503876 
	C388.970581,282.554901 394.249786,272.578064 402.454620,264.256409 
	C417.998169,248.491638 437.657532,240.376862 458.837769,236.159149 
	C473.652832,233.208984 488.760101,230.993484 503.827911,230.217270 
	C526.203674,229.064575 548.660034,229.475143 571.536682,229.337799 
M461.178070,277.014648 
	C460.519592,276.920105 459.860535,276.829163 459.202698,276.730499 
	C448.580841,275.137421 439.822876,278.598175 433.102966,286.838104 
	C426.096222,295.429688 425.555115,305.573914 429.426392,315.142334 
	C433.658112,325.601776 442.939941,331.804352 456.316101,331.064606 
	C467.776184,330.430817 477.693085,322.633423 480.975037,311.685974 
	C485.316406,297.204437 478.120850,284.140900 461.178070,277.014648 
z"/>
<path fill="#FECA3A" opacity="1.000000" stroke="none" 
	d="
M532.451843,853.786987 
	C532.707397,851.916138 533.002136,849.760925 534.206909,848.428467 
	C542.783508,838.942871 551.464111,829.547668 560.271301,820.275391 
	C570.119446,809.907166 580.143188,799.705933 590.074646,789.416687 
	C592.947205,786.440552 595.765320,783.411865 599.179321,780.346069 
	C601.436279,784.832092 602.455688,789.787842 604.942078,793.844421 
	C610.745789,803.313171 621.950623,807.278015 633.673828,804.870361 
	C643.645081,802.822571 652.293701,793.726135 654.094299,783.392273 
	C657.008057,766.669495 646.313354,753.334167 627.996826,750.851257 
	C629.012939,749.052795 629.719604,746.962524 631.095520,745.503357 
	C639.813965,736.258240 648.707642,727.178772 657.463013,717.968018 
	C658.541077,716.833862 659.141113,715.245361 659.979248,713.515991 
	C670.769165,713.164673 681.542480,713.164673 692.854370,713.164673 
	C692.854370,715.184937 692.851868,716.962708 692.854675,718.740417 
	C692.888977,740.204163 692.645752,761.673035 693.047302,783.129944 
	C693.367371,800.229675 685.908875,813.233398 673.116638,823.555725 
	C657.356812,836.272827 638.740356,842.786865 619.245605,846.967529 
	C590.788696,853.070190 561.915649,854.388306 532.451843,853.786987 
z"/>
<path fill="#030201" opacity="1.000000" stroke="none" 
	d="
M627.568970,750.920776 
	C646.313354,753.334167 657.008057,766.669495 654.094299,783.392273 
	C652.293701,793.726135 643.645081,802.822571 633.673828,804.870361 
	C621.950623,807.278015 610.745789,803.313171 604.942078,793.844421 
	C602.455688,789.787842 601.436279,784.832092 599.397217,780.087769 
	C599.210327,764.663940 609.884399,751.104553 627.568970,750.920776 
z"/>
<path fill="#000102" opacity="1.000000" stroke="none" 
	d="
M461.576324,277.102722 
	C478.120850,284.140900 485.316406,297.204437 480.975037,311.685974 
	C477.693085,322.633423 467.776184,330.430817 456.316101,331.064606 
	C442.939941,331.804352 433.658112,325.601776 429.426392,315.142334 
	C425.555115,305.573914 426.096222,295.429688 433.102966,286.838104 
	C439.822876,278.598175 448.580841,275.137421 459.202698,276.730499 
	C459.860535,276.829163 460.519592,276.920105 461.576324,277.102722 
z"/>
</svg>