<svg version="1.1" id="Layer_1" xmlns="http://www.w3.org/2000/svg" xmlns:xlink="http://www.w3.org/1999/xlink" x="0px" y="0px"
	 width="100%" viewBox="0 0 1080 1080" enable-background="new 0 0 1080 1080" xml:space="preserve">
<path fill="#000000" opacity="1.000000" stroke="none" 
	d="
M744.000000,1081.000000 
	C496.028564,1081.000000 248.557114,1081.000000 1.042840,1081.000000 
	C1.042840,721.070129 1.042840,361.140198 1.042840,1.105153 
	C360.888306,1.105153 720.776672,1.105153 1080.832520,1.105153 
	C1080.832520,360.999939 1080.832520,720.999939 1080.832520,1081.000000 
	C968.806396,1081.000000 856.653198,1081.000000 744.000000,1081.000000 
M1069.899048,567.177490 
	C1070.010620,567.203491 1070.122070,567.229553 1070.233643,567.255615 
	C1070.148193,567.174194 1070.062744,567.092773 1069.877686,566.293152 
	C1067.898193,558.290283 1060.857910,554.122803 1056.090820,548.252563 
	C1046.558960,536.515015 1035.197388,526.866577 1022.216003,519.028992 
	C1015.828796,515.172668 1009.763123,510.742920 1003.810608,506.231384 
	C1001.918579,504.797424 1000.861328,502.262115 998.780701,499.325592 
	C1019.313477,495.269257 1038.433838,491.491943 1058.047363,487.617218 
	C1057.139282,485.339325 1056.997925,484.258667 1056.397339,483.591003 
	C1050.735352,477.296539 1045.531494,470.453979 1039.178223,464.942017 
	C1018.580627,447.071899 996.580688,431.116638 970.651489,421.790375 
	C962.922180,419.010284 958.099854,414.489441 954.771729,407.286652 
	C949.185974,395.197815 942.904907,383.428864 937.377136,371.315094 
	C930.122742,355.417725 924.343567,338.765167 916.113098,323.411407 
	C895.493958,284.947449 865.951782,254.519196 829.854004,229.995163 
	C807.499756,214.808212 783.908875,204.683517 756.487366,204.708206 
	C753.967834,204.710480 750.994202,203.158829 749.002441,201.436905 
	C739.138611,192.909454 727.878967,186.796158 715.694031,182.646988 
	C709.021484,180.374893 701.784607,178.722122 694.786072,178.661407 
	C680.197998,178.534882 670.194519,191.740005 673.646667,205.944122 
	C674.801819,210.697357 677.055786,215.345535 679.610291,219.554596 
	C682.619019,224.512314 686.581604,228.881973 689.984436,233.611755 
	C696.377319,242.497803 703.842407,250.670090 707.236023,261.491119 
	C710.670471,272.442261 714.212708,283.389160 718.397034,294.067841 
	C723.256653,306.470001 728.723511,318.624512 738.283936,328.430450 
	C739.543457,329.722382 739.910645,332.711700 739.504883,334.668976 
	C736.271423,350.267914 731.351685,365.656891 729.658081,381.401642 
	C727.305725,403.269745 730.876343,424.733734 742.701172,443.876740 
	C746.027527,449.261810 750.551514,454.408112 755.663452,458.080994 
	C765.198975,464.932251 776.446899,460.566132 779.791626,449.376465 
	C780.974060,445.420685 781.293396,441.207428 782.014954,437.113190 
	C782.991882,431.569855 783.976807,426.027954 784.958252,420.485413 
	C787.773621,423.456207 789.465759,426.312714 790.755432,429.340607 
	C796.542786,442.927155 805.317200,454.346191 816.109802,464.250092 
	C825.429993,472.802795 834.934509,481.155579 844.417358,489.528931 
	C845.819641,490.767181 847.552185,491.631409 849.131958,492.668701 
	C819.428345,462.441467 800.637756,425.852966 785.273438,387.256378 
	C784.558960,387.489380 784.203735,387.515930 783.975098,387.699829 
	C783.591003,388.008667 783.296387,388.426239 782.948669,388.783051 
	C771.936157,400.082886 767.249329,413.999695 765.958008,429.392517 
	C765.493530,434.928375 764.608704,440.428986 763.869324,446.315460 
	C756.473755,444.845001 753.505859,439.872925 751.002319,434.568481 
	C741.228638,413.860565 738.773132,392.000916 742.671570,369.705750 
	C744.604309,358.652130 748.763977,347.973572 752.116638,337.187653 
	C754.284424,330.213745 752.499268,324.696960 747.531250,319.442780 
	C743.571960,315.255341 739.704834,310.635498 737.166321,305.527100 
	C732.889404,296.920288 728.769470,288.028992 726.236084,278.803558 
	C720.259216,257.038300 710.469116,237.533798 695.587280,220.536133 
	C692.869080,217.431351 690.625183,213.835754 688.594177,210.223862 
	C686.026428,205.657364 683.570312,200.502609 687.410583,195.742966 
	C691.319763,190.897827 696.954163,192.453735 701.797852,194.191360 
	C715.630493,199.153671 728.990051,205.071182 740.328674,214.817459 
	C742.504822,216.688004 745.364746,218.347473 748.129883,218.823837 
	C753.512146,219.751099 759.105042,219.419098 764.511108,220.253586 
	C771.862854,221.388412 779.480164,222.176651 786.357910,224.771637 
	C816.721802,236.228134 841.922119,255.417755 864.000244,278.834167 
	C880.672729,296.517303 894.618103,316.198120 904.765198,338.362000 
	C915.641663,362.119263 926.421570,385.925446 936.845642,409.883453 
	C943.106323,424.272919 952.652283,433.792389 968.593140,437.185333 
	C977.266113,439.031372 986.019409,442.346558 993.649170,446.843781 
	C1007.397278,454.947235 1020.367798,464.379181 1033.560181,473.406647 
	C1035.692017,474.865387 1037.292236,477.100922 1039.138184,478.977386 
	C1038.863037,479.455444 1038.587891,479.933502 1038.312744,480.411560 
	C1033.337158,480.411560 1028.359619,480.320709 1023.386292,480.428680 
	C1008.715759,480.747162 994.758911,484.426636 981.136536,489.600220 
	C976.149475,491.494263 975.309570,493.052979 977.839966,497.607544 
	C980.810730,502.954681 983.675293,508.578766 987.709778,513.074097 
	C997.853271,524.376526 1010.453613,532.610596 1024.304565,538.640381 
	C1039.739746,545.359863 1053.687988,554.202820 1066.260132,565.337952 
	C1067.239990,566.205750 1068.798828,566.419678 1069.899048,567.177490 
M249.887222,650.500000 
	C249.887085,616.000977 249.911911,581.501953 249.850128,547.003052 
	C249.843597,543.354431 249.563751,539.669800 248.997299,536.066833 
	C248.004517,529.752136 244.737061,524.736816 238.779449,522.203857 
	C234.060410,520.197449 229.112900,518.473267 224.097794,517.463318 
	C204.259537,513.468506 187.668411,518.936035 178.589645,539.946716 
	C162.538818,577.092529 145.611145,613.859436 129.039597,650.780029 
	C128.346909,652.323242 127.544640,653.817322 126.491470,655.944031 
	C125.444702,653.774292 124.751785,652.459045 124.162758,651.098755 
	C115.758766,631.689941 107.375580,612.272095 98.973518,592.862427 
	C91.100807,574.675598 83.288078,556.462280 75.307106,538.322998 
	C68.082138,521.901917 55.086834,514.495361 37.272766,516.535706 
	C33.315876,516.988953 29.375549,517.745300 25.489985,518.634644 
	C10.145266,522.146667 4.988789,528.497742 4.973849,544.050964 
	C4.931426,588.216980 4.952721,632.383057 4.967371,676.549072 
	C4.967954,678.305115 5.156936,680.061218 5.278153,682.164612 
	C15.187539,682.164612 24.517506,681.896179 33.821320,682.273193 
	C38.780609,682.474182 40.303448,681.147644 40.275677,675.959839 
	C40.051716,634.128357 40.150249,592.295044 40.150291,550.462341 
	C40.150295,548.830017 40.150291,547.197693 40.150291,545.565308 
	C43.236954,549.742065 45.157352,553.968262 47.062969,558.201172 
	C62.992317,593.584839 78.960884,628.950928 94.820412,664.365906 
	C99.473015,674.755371 106.339066,682.563660 118.250519,683.677979 
	C141.524628,685.855225 152.141525,682.396240 161.271469,661.486450 
	C177.197601,625.011963 193.823441,588.842834 210.169357,552.551758 
	C211.075806,550.539246 212.103699,548.581421 213.075058,546.598145 
	C213.526428,546.718811 213.977798,546.839478 214.429169,546.960083 
	C214.429169,591.830078 214.429169,636.700012 214.429169,682.127930 
	C225.757996,682.127930 236.389694,682.237122 247.010544,681.948120 
	C248.002655,681.921143 249.712891,679.398438 249.753418,677.995911 
	C250.008469,669.170044 249.885300,660.333191 249.887222,650.500000 
M654.024597,595.500000 
	C654.029297,611.328979 653.960144,627.158508 654.059631,642.986877 
	C654.156433,658.390076 661.400940,669.183472 675.409607,675.550354 
	C686.339600,680.517944 697.793091,683.200989 709.774719,682.952209 
	C730.080994,682.530579 750.379211,681.720703 770.685303,681.283325 
	C772.733643,681.239197 775.260010,682.111755 776.802307,683.442383 
	C784.493958,690.078613 791.907227,697.036499 799.481689,703.810486 
	C800.677063,704.879456 802.184570,706.325256 803.566895,706.346375 
	C816.331970,706.541443 829.101196,706.461487 843.323425,706.461487 
	C831.282898,695.518433 820.284302,685.522278 808.776733,675.063599 
	C823.180725,669.272644 829.661316,658.532043 829.698059,643.778015 
	C829.768127,615.619324 829.789185,587.460083 829.711609,559.301453 
	C829.674133,545.713074 823.990784,535.081360 811.954102,528.481262 
	C802.658875,523.384277 792.541870,520.255371 781.919922,520.132141 
	C756.098694,519.832397 730.271973,519.942200 704.447754,519.990784 
	C693.616455,520.011108 683.307678,522.677612 673.672974,527.488159 
	C660.992188,533.819580 653.934692,543.937500 654.012695,558.509827 
	C654.076843,570.506226 654.024902,582.503235 654.024597,595.500000 
M299.500427,707.837158 
	C293.091827,707.837158 286.683258,707.837158 280.353424,707.837158 
	C280.353424,716.085449 280.353424,723.333313 280.353424,730.796875 
	C282.190765,730.901733 283.660492,731.058472 285.130280,731.058838 
	C322.295380,731.067078 359.461487,731.208984 396.625092,730.970825 
	C409.321075,730.889465 421.384003,727.434814 432.142670,720.575867 
	C441.352295,714.704590 447.084808,706.383118 447.108429,695.002014 
	C447.191803,654.838135 447.218018,614.674133 447.265503,574.510193 
	C447.267609,572.721741 447.265778,570.933350 447.265778,568.831055 
	C435.209808,568.831055 423.815643,568.831055 411.860840,568.831055 
	C411.860840,599.312622 411.860840,629.396912 411.860840,659.677612 
	C410.019348,659.809875 408.721039,659.983704 407.422638,659.984436 
	C383.423645,659.998840 359.424561,660.021118 335.425781,659.952576 
	C332.611511,659.944519 329.760773,659.611328 326.992340,659.085022 
	C318.079865,657.390747 314.533173,653.014954 314.528229,643.917969 
	C314.515778,621.085571 314.537750,598.253235 314.507233,575.420837 
	C314.504456,573.347046 314.222534,571.273682 314.074005,569.251465 
	C302.258942,569.251465 291.025635,569.251465 279.566681,569.251465 
	C279.456909,570.948120 279.304932,572.249023 279.298737,573.550598 
	C279.188202,596.715698 279.357330,619.886169 278.895355,643.044006 
	C278.639984,655.846130 284.414551,664.711365 294.889130,670.950928 
	C307.723938,678.596558 321.949188,680.945618 336.647125,680.983215 
	C359.646027,681.042053 382.645172,680.993774 405.644226,681.014709 
	C407.562592,681.016479 409.480804,681.199524 411.830841,681.320557 
	C411.830841,685.361389 411.829742,688.837830 411.831055,692.314270 
	C411.833435,698.537231 408.974670,703.081238 403.074432,704.846924 
	C398.034912,706.355103 392.707794,707.658752 387.495331,707.707336 
	C358.499084,707.977295 329.498962,707.836914 299.500427,707.837158 
M631.547180,629.546753 
	C633.710571,612.276001 624.516479,602.448730 609.782837,596.151550 
	C598.248352,591.221680 586.184387,589.467957 573.727661,589.456116 
	C558.072693,589.441284 542.410339,589.429260 526.766113,588.939392 
	C517.137878,588.637878 511.490967,583.635010 510.535400,574.560730 
	C509.842255,567.978455 509.966888,561.231140 510.505829,554.620911 
	C511.017670,548.343079 514.601746,545.131592 521.298950,544.040039 
	C525.553589,543.346558 529.900208,542.907654 534.207275,542.894409 
	C565.026428,542.799744 595.846069,542.843811 626.665527,542.843750 
	C628.606873,542.843750 630.548279,542.843750 632.583862,542.843750 
	C632.583862,534.653442 632.583862,527.103943 632.583862,519.395569 
	C631.436035,519.298462 630.627686,519.170532 629.819275,519.170349 
	C596.167725,519.162292 562.515808,519.070740 528.864929,519.217468 
	C516.458740,519.271606 504.383026,521.116516 493.164886,527.094910 
	C481.184387,533.479614 474.724762,542.988098 474.931305,556.768860 
	C475.028656,563.264526 475.076843,569.765808 474.921600,576.259155 
	C474.718536,584.753113 478.247864,591.395935 484.649170,596.651367 
	C494.647034,604.859558 506.464447,609.018616 519.077393,609.808777 
	C535.510498,610.838257 552.023743,610.524414 568.492493,611.082703 
	C573.947510,611.267700 579.469666,611.932678 584.786377,613.144653 
	C592.157776,614.825012 595.870361,620.078308 595.893860,627.554077 
	C595.908020,632.052002 595.901611,636.550049 595.895569,641.048035 
	C595.884949,648.978394 593.149475,653.739563 585.509888,656.133057 
	C580.060974,657.840210 574.127930,658.662598 568.401062,658.711121 
	C539.249634,658.958618 510.094940,658.825317 480.941376,658.825378 
	C478.985596,658.825378 477.029816,658.825378 474.860168,658.825378 
	C474.860168,666.784607 474.860168,674.201904 474.860168,681.861633 
	C475.827515,681.974854 476.623779,682.149353 477.420105,682.149536 
	C511.737885,682.159180 546.057739,682.369568 580.372437,682.041992 
	C593.910400,681.912720 606.623352,678.039795 617.938904,670.238892 
	C626.782166,664.142212 631.658813,655.951904 631.546753,645.026855 
	C631.497253,640.196167 631.544067,635.364624 631.547180,629.546753 
M887.108643,619.500000 
	C887.108643,586.363342 887.108643,553.226685 887.108643,519.929932 
	C875.212646,519.929932 863.696777,519.929932 852.119080,519.929932 
	C852.030396,521.015076 851.929749,521.672119 851.929749,522.329163 
	C851.931885,562.314514 851.873108,602.300110 851.987976,642.285156 
	C852.029846,656.880432 859.146545,667.162231 872.109192,673.615540 
	C884.166748,679.618164 897.184021,681.691345 910.357544,681.868896 
	C942.006897,682.295227 973.664551,682.109375 1005.318848,682.146912 
	C1006.240234,682.148010 1007.161865,681.884033 1008.023682,681.752686 
	C1008.023682,673.983643 1008.023682,666.577637 1008.023682,658.830261 
	C1005.855408,658.830261 1004.040527,658.830261 1002.225647,658.830261 
	C974.735596,658.830200 947.245422,658.877869 919.755676,658.788757 
	C914.438599,658.771484 909.094788,658.468689 903.812927,657.863953 
	C892.072693,656.519836 887.151855,650.825806 887.114197,638.993286 
	C887.094543,632.828918 887.109375,626.664429 887.108643,619.500000 
M1027.329468,646.965698 
	C1026.675659,649.195618 1025.827515,651.388977 1025.400513,653.661499 
	C1023.244690,665.136658 1029.353760,676.817261 1039.933105,681.663574 
	C1050.767700,686.626831 1063.973755,683.701965 1071.222046,674.733582 
	C1080.930664,662.721130 1078.401367,644.945068 1065.780151,636.485596 
	C1052.735352,627.742126 1035.814453,632.111328 1027.329468,646.965698 
M753.654175,246.601898 
	C758.468262,254.502060 763.282349,262.402222 768.096558,270.302673 
	C773.408447,266.907684 775.429016,260.357330 772.802795,254.974319 
	C768.820007,246.810944 764.015564,244.540161 753.654175,246.601898 
z"/>
<path fill="#006089" opacity="1.000000" stroke="none" 
	d="
M249.887177,651.000000 
	C249.885300,660.333191 250.008469,669.170044 249.753418,677.995911 
	C249.712891,679.398438 248.002655,681.921143 247.010544,681.948120 
	C236.389694,682.237122 225.757996,682.127930 214.429169,682.127930 
	C214.429169,636.700012 214.429169,591.830078 214.429169,546.960083 
	C213.977798,546.839478 213.526428,546.718811 213.075058,546.598145 
	C212.103699,548.581421 211.075806,550.539246 210.169357,552.551758 
	C193.823441,588.842834 177.197601,625.011963 161.271469,661.486450 
	C152.141525,682.396240 141.524628,685.855225 118.250519,683.677979 
	C106.339066,682.563660 99.473015,674.755371 94.820412,664.365906 
	C78.960884,628.950928 62.992317,593.584839 47.062969,558.201172 
	C45.157352,553.968262 43.236954,549.742065 40.150291,545.565308 
	C40.150291,547.197693 40.150295,548.830017 40.150291,550.462341 
	C40.150249,592.295044 40.051716,634.128357 40.275677,675.959839 
	C40.303448,681.147644 38.780609,682.474182 33.821320,682.273193 
	C24.517506,681.896179 15.187539,682.164612 5.278153,682.164612 
	C5.156936,680.061218 4.967954,678.305115 4.967371,676.549072 
	C4.952721,632.383057 4.931426,588.216980 4.973849,544.050964 
	C4.988789,528.497742 10.145266,522.146667 25.489985,518.634644 
	C29.375549,517.745300 33.315876,516.988953 37.272766,516.535706 
	C55.086834,514.495361 68.082138,521.901917 75.307106,538.322998 
	C83.288078,556.462280 91.100807,574.675598 98.973518,592.862427 
	C107.375580,612.272095 115.758766,631.689941 124.162758,651.098755 
	C124.751785,652.459045 125.444702,653.774292 126.491470,655.944031 
	C127.544640,653.817322 128.346909,652.323242 129.039597,650.780029 
	C145.611145,613.859436 162.538818,577.092529 178.589645,539.946716 
	C187.668411,518.936035 204.259537,513.468506 224.097794,517.463318 
	C229.112900,518.473267 234.060410,520.197449 238.779449,522.203857 
	C244.737061,524.736816 248.004517,529.752136 248.997299,536.066833 
	C249.563751,539.669800 249.843597,543.354431 249.850128,547.003052 
	C249.911911,581.501953 249.887085,616.000977 249.887177,651.000000 
z"/>
<path fill="#E28D00" opacity="1.000000" stroke="none" 
	d="
M654.024536,595.000000 
	C654.024902,582.503235 654.076843,570.506226 654.012695,558.509827 
	C653.934692,543.937500 660.992188,533.819580 673.672974,527.488159 
	C683.307678,522.677612 693.616455,520.011108 704.447754,519.990784 
	C730.271973,519.942200 756.098694,519.832397 781.919922,520.132141 
	C792.541870,520.255371 802.658875,523.384277 811.954102,528.481262 
	C823.990784,535.081360 829.674133,545.713074 829.711609,559.301453 
	C829.789185,587.460083 829.768127,615.619324 829.698059,643.778015 
	C829.661316,658.532043 823.180725,669.272644 808.776733,675.063599 
	C820.284302,685.522278 831.282898,695.518433 843.323425,706.461487 
	C829.101196,706.461487 816.331970,706.541443 803.566895,706.346375 
	C802.184570,706.325256 800.677063,704.879456 799.481689,703.810486 
	C791.907227,697.036499 784.493958,690.078613 776.802307,683.442383 
	C775.260010,682.111755 772.733643,681.239197 770.685303,681.283325 
	C750.379211,681.720703 730.080994,682.530579 709.774719,682.952209 
	C697.793091,683.200989 686.339600,680.517944 675.409607,675.550354 
	C661.400940,669.183472 654.156433,658.390076 654.059631,642.986877 
	C653.960144,627.158508 654.029297,611.328979 654.024536,595.000000 
M784.407349,653.414795 
	C786.349854,655.900024 788.299133,655.807129 790.549866,653.686768 
	C794.385132,650.073425 796.526184,645.788208 796.523315,640.461365 
	C796.509216,614.151611 796.547791,587.841858 796.494629,561.532227 
	C796.479492,554.050354 792.751099,548.641357 785.853027,546.203186 
	C781.077576,544.515076 775.853333,543.400391 770.805481,543.304749 
	C752.828003,542.964050 734.837097,542.986145 716.858521,543.294739 
	C712.305908,543.372864 707.600342,544.518982 703.281433,546.060486 
	C695.427063,548.863647 692.146973,554.137329 692.142944,562.483643 
	C692.130737,587.627808 692.119019,612.771912 692.147400,637.916077 
	C692.159058,648.289612 697.408569,656.397034 707.523804,657.671753 
	C721.045105,659.375671 734.814758,659.108826 748.477722,659.688293 
	C748.580627,659.180725 748.683472,658.673096 748.786377,658.165466 
	C739.777222,650.006775 730.768066,641.848022 720.814941,632.834412 
	C733.944641,632.834412 745.725037,632.666687 757.493469,632.968140 
	C760.016541,633.032715 762.958984,634.243591 764.911194,635.878296 
	C771.416443,641.325378 777.559387,647.205200 784.407349,653.414795 
z"/>
<path fill="#005F87" opacity="1.000000" stroke="none" 
	d="
M1070.088623,566.937500 
	C1068.798828,566.419678 1067.239990,566.205750 1066.260132,565.337952 
	C1053.687988,554.202820 1039.739746,545.359863 1024.304565,538.640381 
	C1010.453613,532.610596 997.853271,524.376526 987.709778,513.074097 
	C983.675293,508.578766 980.810730,502.954681 977.839966,497.607544 
	C975.309570,493.052979 976.149475,491.494263 981.136536,489.600220 
	C994.758911,484.426636 1008.715759,480.747162 1023.386292,480.428680 
	C1028.359619,480.320709 1033.337158,480.411560 1038.312744,480.411560 
	C1038.587891,479.933502 1038.863037,479.455444 1039.138184,478.977386 
	C1037.292236,477.100922 1035.692017,474.865387 1033.560181,473.406647 
	C1020.367798,464.379181 1007.397278,454.947235 993.649170,446.843781 
	C986.019409,442.346558 977.266113,439.031372 968.593140,437.185333 
	C952.652283,433.792389 943.106323,424.272919 936.845642,409.883453 
	C926.421570,385.925446 915.641663,362.119263 904.765198,338.362000 
	C894.618103,316.198120 880.672729,296.517303 864.000244,278.834167 
	C841.922119,255.417755 816.721802,236.228134 786.357910,224.771637 
	C779.480164,222.176651 771.862854,221.388412 764.511108,220.253586 
	C759.105042,219.419098 753.512146,219.751099 748.129883,218.823837 
	C745.364746,218.347473 742.504822,216.688004 740.328674,214.817459 
	C728.990051,205.071182 715.630493,199.153671 701.797852,194.191360 
	C696.954163,192.453735 691.319763,190.897827 687.410583,195.742966 
	C683.570312,200.502609 686.026428,205.657364 688.594177,210.223862 
	C690.625183,213.835754 692.869080,217.431351 695.587280,220.536133 
	C710.469116,237.533798 720.259216,257.038300 726.236084,278.803558 
	C728.769470,288.028992 732.889404,296.920288 737.166321,305.527100 
	C739.704834,310.635498 743.571960,315.255341 747.531250,319.442780 
	C752.499268,324.696960 754.284424,330.213745 752.116638,337.187653 
	C748.763977,347.973572 744.604309,358.652130 742.671570,369.705750 
	C738.773132,392.000916 741.228638,413.860565 751.002319,434.568481 
	C753.505859,439.872925 756.473755,444.845001 763.869324,446.315460 
	C764.608704,440.428986 765.493530,434.928375 765.958008,429.392517 
	C767.249329,413.999695 771.936157,400.082886 782.948669,388.783051 
	C783.296387,388.426239 783.591003,388.008667 783.975098,387.699829 
	C784.203735,387.515930 784.558960,387.489380 785.273438,387.256378 
	C800.637756,425.852966 819.428345,462.441467 849.131958,492.668701 
	C847.552185,491.631409 845.819641,490.767181 844.417358,489.528931 
	C834.934509,481.155579 825.429993,472.802795 816.109802,464.250092 
	C805.317200,454.346191 796.542786,442.927155 790.755432,429.340607 
	C789.465759,426.312714 787.773621,423.456207 784.958252,420.485413 
	C783.976807,426.027954 782.991882,431.569855 782.014954,437.113190 
	C781.293396,441.207428 780.974060,445.420685 779.791626,449.376465 
	C776.446899,460.566132 765.198975,464.932251 755.663452,458.080994 
	C750.551514,454.408112 746.027527,449.261810 742.701172,443.876740 
	C730.876343,424.733734 727.305725,403.269745 729.658081,381.401642 
	C731.351685,365.656891 736.271423,350.267914 739.504883,334.668976 
	C739.910645,332.711700 739.543457,329.722382 738.283936,328.430450 
	C728.723511,318.624512 723.256653,306.470001 718.397034,294.067841 
	C714.212708,283.389160 710.670471,272.442261 707.236023,261.491119 
	C703.842407,250.670090 696.377319,242.497803 689.984436,233.611755 
	C686.581604,228.881973 682.619019,224.512314 679.610291,219.554596 
	C677.055786,215.345535 674.801819,210.697357 673.646667,205.944122 
	C670.194519,191.740005 680.197998,178.534882 694.786072,178.661407 
	C701.784607,178.722122 709.021484,180.374893 715.694031,182.646988 
	C727.878967,186.796158 739.138611,192.909454 749.002441,201.436905 
	C750.994202,203.158829 753.967834,204.710480 756.487366,204.708206 
	C783.908875,204.683517 807.499756,214.808212 829.854004,229.995163 
	C865.951782,254.519196 895.493958,284.947449 916.113098,323.411407 
	C924.343567,338.765167 930.122742,355.417725 937.377136,371.315094 
	C942.904907,383.428864 949.185974,395.197815 954.771729,407.286652 
	C958.099854,414.489441 962.922180,419.010284 970.651489,421.790375 
	C996.580688,431.116638 1018.580627,447.071899 1039.178223,464.942017 
	C1045.531494,470.453979 1050.735352,477.296539 1056.397339,483.591003 
	C1056.997925,484.258667 1057.139282,485.339325 1058.047363,487.617218 
	C1038.433838,491.491943 1019.313477,495.269257 998.780701,499.325592 
	C1000.861328,502.262115 1001.918579,504.797424 1003.810608,506.231384 
	C1009.763123,510.742920 1015.828796,515.172668 1022.216003,519.028992 
	C1035.197388,526.866577 1046.558960,536.515015 1056.090820,548.252563 
	C1060.857910,554.122803 1067.898193,558.290283 1069.954834,566.633179 
	C1070.032104,566.973145 1070.088623,566.937561 1070.088623,566.937500 
z"/>
<path fill="#006189" opacity="1.000000" stroke="none" 
	d="
M300.000305,707.837036 
	C329.498962,707.836914 358.499084,707.977295 387.495331,707.707336 
	C392.707794,707.658752 398.034912,706.355103 403.074432,704.846924 
	C408.974670,703.081238 411.833435,698.537231 411.831055,692.314270 
	C411.829742,688.837830 411.830841,685.361389 411.830841,681.320557 
	C409.480804,681.199524 407.562592,681.016479 405.644226,681.014709 
	C382.645172,680.993774 359.646027,681.042053 336.647125,680.983215 
	C321.949188,680.945618 307.723938,678.596558 294.889130,670.950928 
	C284.414551,664.711365 278.639984,655.846130 278.895355,643.044006 
	C279.357330,619.886169 279.188202,596.715698 279.298737,573.550598 
	C279.304932,572.249023 279.456909,570.948120 279.566681,569.251465 
	C291.025635,569.251465 302.258942,569.251465 314.074005,569.251465 
	C314.222534,571.273682 314.504456,573.347046 314.507233,575.420837 
	C314.537750,598.253235 314.515778,621.085571 314.528229,643.917969 
	C314.533173,653.014954 318.079865,657.390747 326.992340,659.085022 
	C329.760773,659.611328 332.611511,659.944519 335.425781,659.952576 
	C359.424561,660.021118 383.423645,659.998840 407.422638,659.984436 
	C408.721039,659.983704 410.019348,659.809875 411.860840,659.677612 
	C411.860840,629.396912 411.860840,599.312622 411.860840,568.831055 
	C423.815643,568.831055 435.209808,568.831055 447.265778,568.831055 
	C447.265778,570.933350 447.267609,572.721741 447.265503,574.510193 
	C447.218018,614.674133 447.191803,654.838135 447.108429,695.002014 
	C447.084808,706.383118 441.352295,714.704590 432.142670,720.575867 
	C421.384003,727.434814 409.321075,730.889465 396.625092,730.970825 
	C359.461487,731.208984 322.295380,731.067078 285.130280,731.058838 
	C283.660492,731.058472 282.190765,730.901733 280.353424,730.796875 
	C280.353424,723.333313 280.353424,716.085449 280.353424,707.837158 
	C286.683258,707.837158 293.091827,707.837158 300.000305,707.837036 
z"/>
<path fill="#E28D00" opacity="1.000000" stroke="none" 
	d="
M631.547180,630.040100 
	C631.544067,635.364624 631.497253,640.196167 631.546753,645.026855 
	C631.658813,655.951904 626.782166,664.142212 617.938904,670.238892 
	C606.623352,678.039795 593.910400,681.912720 580.372437,682.041992 
	C546.057739,682.369568 511.737885,682.159180 477.420105,682.149536 
	C476.623779,682.149353 475.827515,681.974854 474.860168,681.861633 
	C474.860168,674.201904 474.860168,666.784607 474.860168,658.825378 
	C477.029816,658.825378 478.985596,658.825378 480.941376,658.825378 
	C510.094940,658.825317 539.249634,658.958618 568.401062,658.711121 
	C574.127930,658.662598 580.060974,657.840210 585.509888,656.133057 
	C593.149475,653.739563 595.884949,648.978394 595.895569,641.048035 
	C595.901611,636.550049 595.908020,632.052002 595.893860,627.554077 
	C595.870361,620.078308 592.157776,614.825012 584.786377,613.144653 
	C579.469666,611.932678 573.947510,611.267700 568.492493,611.082703 
	C552.023743,610.524414 535.510498,610.838257 519.077393,609.808777 
	C506.464447,609.018616 494.647034,604.859558 484.649170,596.651367 
	C478.247864,591.395935 474.718536,584.753113 474.921600,576.259155 
	C475.076843,569.765808 475.028656,563.264526 474.931305,556.768860 
	C474.724762,542.988098 481.184387,533.479614 493.164886,527.094910 
	C504.383026,521.116516 516.458740,519.271606 528.864929,519.217468 
	C562.515808,519.070740 596.167725,519.162292 629.819275,519.170349 
	C630.627686,519.170532 631.436035,519.298462 632.583862,519.395569 
	C632.583862,527.103943 632.583862,534.653442 632.583862,542.843750 
	C630.548279,542.843750 628.606873,542.843750 626.665527,542.843750 
	C595.846069,542.843811 565.026428,542.799744 534.207275,542.894409 
	C529.900208,542.907654 525.553589,543.346558 521.298950,544.040039 
	C514.601746,545.131592 511.017670,548.343079 510.505829,554.620911 
	C509.966888,561.231140 509.842255,567.978455 510.535400,574.560730 
	C511.490967,583.635010 517.137878,588.637878 526.766113,588.939392 
	C542.410339,589.429260 558.072693,589.441284 573.727661,589.456116 
	C586.184387,589.467957 598.248352,591.221680 609.782837,596.151550 
	C624.516479,602.448730 633.710571,612.276001 631.547180,630.040100 
z"/>
<path fill="#E38D00" opacity="1.000000" stroke="none" 
	d="
M887.108643,620.000000 
	C887.109375,626.664429 887.094543,632.828918 887.114197,638.993286 
	C887.151855,650.825806 892.072693,656.519836 903.812927,657.863953 
	C909.094788,658.468689 914.438599,658.771484 919.755676,658.788757 
	C947.245422,658.877869 974.735596,658.830200 1002.225647,658.830261 
	C1004.040527,658.830261 1005.855408,658.830261 1008.023682,658.830261 
	C1008.023682,666.577637 1008.023682,673.983643 1008.023682,681.752686 
	C1007.161865,681.884033 1006.240234,682.148010 1005.318848,682.146912 
	C973.664551,682.109375 942.006897,682.295227 910.357544,681.868896 
	C897.184021,681.691345 884.166748,679.618164 872.109192,673.615540 
	C859.146545,667.162231 852.029846,656.880432 851.987976,642.285156 
	C851.873108,602.300110 851.931885,562.314514 851.929749,522.329163 
	C851.929749,521.672119 852.030396,521.015076 852.119080,519.929932 
	C863.696777,519.929932 875.212646,519.929932 887.108643,519.929932 
	C887.108643,553.226685 887.108643,586.363342 887.108643,620.000000 
z"/>
<path fill="#D98700" opacity="1.000000" stroke="none" 
	d="
M1027.525146,646.639404 
	C1035.814453,632.111328 1052.735352,627.742126 1065.780151,636.485596 
	C1078.401367,644.945068 1080.930664,662.721130 1071.222046,674.733582 
	C1063.973755,683.701965 1050.767700,686.626831 1039.933105,681.663574 
	C1029.353760,676.817261 1023.244690,665.136658 1025.400513,653.661499 
	C1025.827515,651.388977 1026.675659,649.195618 1027.525146,646.639404 
M1063.544434,641.862793 
	C1062.581177,641.214478 1061.666382,640.474792 1060.646729,639.932312 
	C1052.712036,635.710632 1042.970459,637.160339 1036.724121,643.452454 
	C1030.555420,649.666382 1029.063965,660.098999 1033.219727,667.965515 
	C1037.326416,675.739197 1045.737305,679.825623 1054.582520,678.252991 
	C1062.520630,676.841614 1067.855835,672.212585 1070.150513,664.549500 
	C1072.704712,656.020142 1070.831177,648.453796 1063.544434,641.862793 
z"/>
<path fill="#005D85" opacity="1.000000" stroke="none" 
	d="
M753.961426,246.408127 
	C764.015564,244.540161 768.820007,246.810944 772.802795,254.974319 
	C775.429016,260.357330 773.408447,266.907684 768.096558,270.302673 
	C763.282349,262.402222 758.468262,254.502060 753.961426,246.408127 
z"/>
<path fill="#005F87" opacity="1.000000" stroke="none" 
	d="
M1070.004639,566.992310 
	C1070.062744,567.092773 1070.148193,567.174194 1070.233643,567.255615 
	C1070.122070,567.229553 1070.010620,567.203491 1069.993896,567.057495 
	C1070.088623,566.937561 1070.032104,566.973145 1070.004639,566.992310 
z"/>
<path fill="#020100" opacity="1.000000" stroke="none" 
	d="
M784.124268,653.166992 
	C777.559387,647.205200 771.416443,641.325378 764.911194,635.878296 
	C762.958984,634.243591 760.016541,633.032715 757.493469,632.968140 
	C745.725037,632.666687 733.944641,632.834412 720.814941,632.834412 
	C730.768066,641.848022 739.777222,650.006775 748.786377,658.165466 
	C748.683472,658.673096 748.580627,659.180725 748.477722,659.688293 
	C734.814758,659.108826 721.045105,659.375671 707.523804,657.671753 
	C697.408569,656.397034 692.159058,648.289612 692.147400,637.916077 
	C692.119019,612.771912 692.130737,587.627808 692.142944,562.483643 
	C692.146973,554.137329 695.427063,548.863647 703.281433,546.060486 
	C707.600342,544.518982 712.305908,543.372864 716.858521,543.294739 
	C734.837097,542.986145 752.828003,542.964050 770.805481,543.304749 
	C775.853333,543.400391 781.077576,544.515076 785.853027,546.203186 
	C792.751099,548.641357 796.479492,554.050354 796.494629,561.532227 
	C796.547791,587.841858 796.509216,614.151611 796.523315,640.461365 
	C796.526184,645.788208 794.385132,650.073425 790.549866,653.686768 
	C788.299133,655.807129 786.349854,655.900024 784.124268,653.166992 
z"/>
<path fill="#070400" opacity="1.000000" stroke="none" 
	d="
M1063.828857,642.093140 
	C1070.831177,648.453796 1072.704712,656.020142 1070.150513,664.549500 
	C1067.855835,672.212585 1062.520630,676.841614 1054.582520,678.252991 
	C1045.737305,679.825623 1037.326416,675.739197 1033.219727,667.965515 
	C1029.063965,660.098999 1030.555420,649.666382 1036.724121,643.452454 
	C1042.970459,637.160339 1052.712036,635.710632 1060.646729,639.932312 
	C1061.666382,640.474792 1062.581177,641.214478 1063.828857,642.093140 
M1052.151611,663.188538 
	C1053.440552,665.319946 1054.882568,667.375854 1055.981812,669.601013 
	C1057.534058,672.743591 1059.673340,673.897888 1063.404053,672.354004 
	C1060.834473,668.295654 1058.382446,664.422974 1055.840942,660.408997 
	C1056.617676,659.981323 1057.151245,659.556030 1057.757935,659.374573 
	C1062.211914,658.041992 1063.543945,654.856079 1063.215454,650.545532 
	C1062.873901,646.062439 1060.040039,643.959900 1056.041016,643.678467 
	C1051.149414,643.334229 1046.215088,643.596497 1041.065063,643.596497 
	C1041.065063,653.355103 1041.065063,662.922913 1041.065063,672.701782 
	C1042.651367,672.701782 1044.023926,672.701782 1045.926392,672.701782 
	C1045.926392,668.357727 1045.926392,664.285706 1045.926392,658.678223 
	C1048.605591,660.430237 1050.196045,661.470276 1052.151611,663.188538 
z"/>
<path fill="#DB8800" opacity="1.000000" stroke="none" 
	d="
M1051.968994,662.849426 
	C1050.196045,661.470276 1048.605591,660.430237 1045.926392,658.678223 
	C1045.926392,664.285706 1045.926392,668.357727 1045.926392,672.701782 
	C1044.023926,672.701782 1042.651367,672.701782 1041.065063,672.701782 
	C1041.065063,662.922913 1041.065063,653.355103 1041.065063,643.596497 
	C1046.215088,643.596497 1051.149414,643.334229 1056.041016,643.678467 
	C1060.040039,643.959900 1062.873901,646.062439 1063.215454,650.545532 
	C1063.543945,654.856079 1062.211914,658.041992 1057.757935,659.374573 
	C1057.151245,659.556030 1056.617676,659.981323 1055.840942,660.408997 
	C1058.382446,664.422974 1060.834473,668.295654 1063.404053,672.354004 
	C1059.673340,673.897888 1057.534058,672.743591 1055.981812,669.601013 
	C1054.882568,667.375854 1053.440552,665.319946 1051.968994,662.849426 
M1048.535522,656.007690 
	C1050.502319,655.905334 1052.690918,656.300476 1054.369873,655.552246 
	C1055.864990,654.885803 1057.712158,652.952576 1057.710327,651.580688 
	C1057.708618,650.290466 1055.676514,648.233582 1054.211182,647.884521 
	C1051.649414,647.274292 1048.837280,647.714478 1044.810791,647.714478 
	C1045.949219,651.061279 1046.787109,653.524536 1048.535522,656.007690 
z"/>
<path fill="#0F0900" opacity="1.000000" stroke="none" 
	d="
M1048.080322,655.997742 
	C1046.787109,653.524536 1045.949219,651.061279 1044.810791,647.714478 
	C1048.837280,647.714478 1051.649414,647.274292 1054.211182,647.884521 
	C1055.676514,648.233582 1057.708618,650.290466 1057.710327,651.580688 
	C1057.712158,652.952576 1055.864990,654.885803 1054.369873,655.552246 
	C1052.690918,656.300476 1050.502319,655.905334 1048.080322,655.997742 
z"/>
</svg>